<?xml version="1.0" encoding="utf-8"?>
<!-- Generator: Adobe Illustrator 24.3.0, SVG Export Plug-In . SVG Version: 6.00 Build 0)  -->
<svg version="1.1" id="Layer_1" xmlns="http://www.w3.org/2000/svg" xmlns:xlink="http://www.w3.org/1999/xlink" x="0px" y="0px"
	 viewBox="0 0 10 10" style="enable-background:new 0 0 10 10;" xml:space="preserve">
<style type="text/css">
	.st0{fill:#FFFFFF;}
</style>
<g>
	<g>
		<path class="st0" d="M9.4,10H0.3c-0.1,0-0.1-0.1-0.1-0.1V0.1c0-0.1,0-0.1,0.1-0.1h9.1c0.2,0,0.4,0.2,0.4,0.4v9.1
			C9.8,9.8,9.6,10,9.4,10z M0.4,9.8h9c0.1,0,0.2-0.1,0.2-0.2V0.4c0-0.1-0.1-0.2-0.2-0.2h-9V9.8z"/>
	</g>
	<g>
		<path class="st0" d="M8.5,9.1H0.3C0.2,9.1,0.2,9.1,0.2,9c0-0.1,0.1-0.1,0.1-0.1h8.1V1.1H0.3C0.2,1.1,0.2,1.1,0.2,1
			c0-0.1,0.1-0.1,0.1-0.1h8.2c0.1,0,0.1,0.1,0.1,0.1v8C8.6,9.1,8.5,9.1,8.5,9.1z"/>
	</g>
	<g>
		<circle class="st0" cx="1.5" cy="0.6" r="0.1"/>
		<circle class="st0" cx="2.8" cy="0.6" r="0.1"/>
		<circle class="st0" cx="4.1" cy="0.6" r="0.1"/>
		<circle class="st0" cx="5.4" cy="0.6" r="0.1"/>
		<circle class="st0" cx="6.8" cy="0.6" r="0.1"/>
	</g>
	<g>
		<path class="st0" d="M5.6,9.1C5.5,9.1,5.5,9.1,5.5,9V6.4c0-0.1,0.1-0.1,0.1-0.1h2.9c0.1,0,0.1,0.1,0.1,0.1c0,0.1-0.1,0.1-0.1,0.1
			H5.7V9C5.7,9.1,5.6,9.1,5.6,9.1z"/>
	</g>
	<g>
		<path class="st0" d="M5.6,6.5c-0.1,0-0.1,0-0.1-0.1V1c0-0.1,0.1-0.1,0.1-0.1c0.1,0,0.1,0,0.1,0.1v5.4C5.7,6.5,5.6,6.5,5.6,6.5z"/>
	</g>
	<g>
		<path class="st0" d="M8.5,2.1H5.6C5.5,2.1,5.5,2,5.5,2s0.1-0.1,0.1-0.1h2.9c0.1,0,0.1,0,0.1,0.1S8.5,2.1,8.5,2.1z"/>
	</g>
	<g>
		<path class="st0" d="M8.5,3.1H5.6C5.5,3.1,5.5,3,5.5,3c0-0.1,0.1-0.1,0.1-0.1h2.9c0.1,0,0.1,0,0.1,0.1C8.6,3,8.5,3.1,8.5,3.1z"/>
	</g>
	<g>
		<path class="st0" d="M8.5,4.1H5.6c-0.1,0-0.1,0-0.1-0.1s0.1-0.1,0.1-0.1h2.9c0.1,0,0.1,0,0.1,0.1S8.5,4.1,8.5,4.1z"/>
	</g>
	<g>
		<path class="st0" d="M1.4,3.7H0.7c-0.1,0-0.1-0.1-0.1-0.1c0-0.1,0-0.1,0.1-0.1h0.6V3.1h-1C0.2,3.1,0.2,3,0.2,3
			c0-0.1,0.1-0.1,0.1-0.1h1.1c0.1,0,0.1,0,0.1,0.1v0.7C1.5,3.7,1.4,3.7,1.4,3.7z"/>
	</g>
	<g>
		<path class="st0" d="M1.4,6.4H0.7c-0.1,0-0.1-0.1-0.1-0.1c0-0.1,0-0.1,0.1-0.1h0.6V5.8h-1c-0.1,0-0.1,0-0.1-0.1s0.1-0.1,0.1-0.1
			h1.1c0.1,0,0.1,0.1,0.1,0.1v0.6C1.5,6.4,1.4,6.4,1.4,6.4z"/>
	</g>
	<g>
		<path class="st0" d="M1.4,5.3H0.7c-0.1,0-0.1-0.1-0.1-0.1s0-0.1,0.1-0.1h0.6V4.3h-1c-0.1,0-0.1-0.1-0.1-0.1s0.1-0.1,0.1-0.1h1.1
			c0.1,0,0.1,0,0.1,0.1v1C1.5,5.2,1.4,5.3,1.4,5.3z"/>
	</g>
	<g>
		<path class="st0" d="M3.4,3.1H2.1C2,3.1,2,3,2,3c0-0.1,0-0.1,0.1-0.1h1.3c0.1,0,0.2-0.1,0.2-0.2V1c0-0.1,0-0.1,0.1-0.1
			c0.1,0,0.1,0,0.1,0.1v1.6C3.9,2.9,3.7,3.1,3.4,3.1z"/>
	</g>
	<g>
		<path class="st0" d="M3.3,8.1H1.8c-0.1,0-0.1,0-0.1-0.1c0-0.1,0.1-0.1,0.1-0.1h1.5C3.4,7.9,3.5,8,3.5,8C3.5,8.1,3.4,8.1,3.3,8.1z"
			/>
	</g>
	<g>
		<path class="st0" d="M3.3,7.4H1.8c-0.1,0-0.1,0-0.1-0.1s0.1-0.1,0.1-0.1h1.5c0.1,0,0.1,0,0.1,0.1S3.4,7.4,3.3,7.4z"/>
	</g>
	<g>
		<path class="st0" d="M3.5,5.9C3.5,5.9,3.5,5.9,3.5,5.9c-0.2,0-0.2-0.1-0.3-0.1c0-0.1-0.1-0.1,0-0.2c0-0.1,0.1-0.2,0.1-0.3
			c0,0-0.1-0.1-0.1-0.1c-0.1,0-0.2,0-0.3,0c0,0,0,0,0,0c0,0,0,0.1,0,0.1C2.9,5.3,3,5.4,3,5.4c0,0.1,0,0.1,0,0.2s-0.1,0-0.2,0
			c0-0.1-0.1-0.1-0.2-0.2c0-0.1,0-0.2,0-0.3C2.7,5,2.8,5,2.8,5c0.1,0,0.2,0,0.3,0c0-0.1,0-0.1,0.1-0.2C3.1,4.7,3.1,4.6,3,4.6
			c0,0,0,0,0,0c0,0,0,0-0.1,0c0,0.1-0.1,0.1-0.1,0.2c0,0.1-0.1,0.1-0.1,0.1c-0.1,0-0.1-0.1-0.1-0.1c0-0.1,0.1-0.2,0.1-0.2
			c0-0.1,0.1-0.1,0.2-0.1c0.1,0,0.1,0,0.2,0.1c0.1,0.1,0.1,0.1,0.2,0.2c0.1,0,0.1,0,0.2,0c0.1-0.1,0.1-0.2,0.1-0.2c0,0,0,0,0,0
			c0,0,0,0-0.1,0c-0.1,0-0.2,0-0.2,0c-0.1,0-0.1,0-0.1-0.1c0-0.1,0-0.1,0.1-0.1c0.1,0,0.2,0,0.3,0c0.1,0,0.2,0.1,0.2,0.1
			c0,0.1,0.1,0.1,0,0.2c0,0.1-0.1,0.2-0.1,0.3c0,0,0.1,0.1,0.1,0.1c0.1,0,0.2,0,0.3,0c0,0,0,0,0,0c0,0,0-0.1,0-0.1
			C4.1,4.6,4,4.6,4,4.5c0,0,0-0.1,0-0.2s0.1,0,0.2,0c0,0.1,0.1,0.1,0.1,0.2c0,0.1,0,0.2,0,0.3C4.3,4.9,4.2,5,4.1,5C4.1,5,4,5,3.9,5
			c0,0.1,0,0.1-0.1,0.2C3.9,5.3,3.9,5.3,4,5.4c0,0,0,0,0,0s0,0,0.1,0c0-0.1,0.1-0.1,0.1-0.2c0-0.1,0.1-0.1,0.1-0.1
			c0.1,0,0.1,0.1,0.1,0.1c0,0.1-0.1,0.2-0.1,0.2c0,0.1-0.1,0.1-0.2,0.1c-0.1,0-0.1,0-0.2-0.1C3.8,5.5,3.7,5.4,3.7,5.3
			c0,0-0.1,0-0.2,0l0,0c0,0.1-0.1,0.2-0.1,0.2c0,0,0,0,0,0c0,0,0,0,0.1,0c0.1,0,0.1,0,0.2,0c0.1,0,0.1,0,0.1,0.1
			c0,0.1,0,0.1-0.1,0.1C3.6,5.8,3.6,5.9,3.5,5.9z M3.5,4.8C3.4,4.8,3.4,4.9,3.4,5s0.1,0.1,0.1,0.1S3.7,5.1,3.7,5S3.6,4.8,3.5,4.8z"
			/>
	</g>
	<g>
		<path class="st0" d="M3.5,6.4C2.7,6.4,2.1,5.7,2.1,5c0-0.8,0.6-1.4,1.4-1.4c0.8,0,1.4,0.6,1.4,1.4C4.9,5.7,4.3,6.4,3.5,6.4z
			 M3.5,3.8C2.9,3.8,2.3,4.3,2.3,5s0.5,1.2,1.2,1.2S4.7,5.6,4.7,5C4.7,4.3,4.1,3.8,3.5,3.8z"/>
	</g>
</g>
</svg>
