<?xml version="1.0" encoding="utf-8"?>
<!-- Generator: Adobe Illustrator 24.3.0, SVG Export Plug-In . SVG Version: 6.00 Build 0)  -->
<svg version="1.1" id="Layer_1" xmlns="http://www.w3.org/2000/svg" xmlns:xlink="http://www.w3.org/1999/xlink" x="0px" y="0px"
	 viewBox="0 0 10 10.7" style="enable-background:new 0 0 10 10.7;" xml:space="preserve">
<style type="text/css">
	.st0{fill:#FFFFFF;}
</style>
<path class="st0" d="M6.6,9.2c0-0.2,0.1-0.5,0.3-0.7c0.1-0.1,0-0.2,0-0.2c-0.1-0.1-0.2,0-0.2,0C6.4,8.6,6.3,8.9,6.3,9.3H6
	C6,9,6,8.8,6.2,8.6c0-0.1,0-0.2-0.1-0.2c-0.1,0-0.2,0-0.2,0.1C5.7,8.7,5.7,9,5.7,9.3H4.4c0-0.3-0.1-0.6-0.2-0.9C4.1,8.3,4,8.3,4,8.3
	c-0.1,0-0.1,0.1-0.1,0.2C4,8.8,4.1,9,4.1,9.3H3.8c0-0.3-0.2-0.6-0.4-0.9c-0.1-0.1-0.2-0.1-0.2,0c-0.1,0.1-0.1,0.2,0,0.2
	C3.3,8.8,3.4,9,3.5,9.2C3.2,9.2,3,9.5,3,9.7v0.5c0,0.1,0.1,0.2,0.2,0.2h3.7c0.1,0,0.2-0.1,0.2-0.2V9.7C7,9.5,6.8,9.2,6.6,9.2z
	 M6.7,10H3.3V9.7c0-0.1,0.1-0.2,0.2-0.2h3.1c0.1,0,0.2,0.1,0.2,0.2V10z M1.7,1.2C1.7,1.1,1.8,1,2,1s0.2,0.1,0.2,0.2S2.1,1.4,2,1.4
	S1.7,1.3,1.7,1.2z M8.3,7.3c0,0.1-0.1,0.2-0.2,0.2S7.8,7.4,7.8,7.3c0-0.1,0.1-0.2,0.2-0.2S8.3,7.2,8.3,7.3z M8.3,1.2
	c0,0.1-0.1,0.2-0.2,0.2S7.8,1.3,7.8,1.2S7.9,1,8,1S8.3,1.1,8.3,1.2z M2.2,7.3c0,0.1-0.1,0.2-0.2,0.2S1.7,7.4,1.7,7.3
	c0-0.1,0.1-0.2,0.2-0.2S2.2,7.2,2.2,7.3z M7,1.6L7,1.6C7,1.6,6.9,1.6,7,1.6C6.4,1.2,5.7,1,5,1C3.9,1,3,1.5,2.4,2.3l0,0l0,0
	C2,2.8,1.7,3.5,1.7,4.2c0,1.1,0.5,2,1.3,2.6l0,0l0,0c0.5,0.4,1.2,0.6,2,0.6c1.1,0,2-0.5,2.6-1.3l0,0l0,0C8,5.6,8.3,5,8.3,4.2
	C8.3,3.2,7.8,2.2,7,1.6z M7.6,2.9L5.9,3.6c0-0.1-0.1-0.1-0.2-0.2l1.2-1.5C7.2,2.2,7.5,2.5,7.6,2.9z M8,4.2c0,0.1,0,0.1,0,0.2
	L6.1,4.1C6.1,4,6,3.9,6,3.8l1.8-0.7C7.9,3.5,8,3.9,8,4.2z M7.5,5.9L6,4.7c0-0.1,0.1-0.2,0.1-0.2l1.8,0.3C7.9,5.1,7.7,5.5,7.5,5.9z
	 M2,4.2c0-0.1,0-0.1,0-0.2l1.9,0.3c0,0.1,0,0.2,0.1,0.2L2.2,5.3C2.1,5,2,4.6,2,4.2z M2.5,2.6L4,3.8C4,3.9,3.9,4,3.9,4.1L2.1,3.8
	C2.1,3.3,2.3,3,2.5,2.6z M4.8,5.3L4.5,7.2C4.1,7.1,3.7,6.9,3.4,6.7l1.2-1.5C4.7,5.3,4.7,5.3,4.8,5.3z M5,5C4.6,5,4.2,4.7,4.2,4.2
	c0-0.4,0.3-0.8,0.8-0.8l0,0l0,0c0.4,0,0.8,0.4,0.8,0.8C5.8,4.7,5.4,5,5,5z M5.2,3.2l0.3-1.8c0.4,0.1,0.8,0.2,1.1,0.4L5.4,3.2
	C5.3,3.2,5.3,3.2,5.2,3.2z M5.2,1.3L4.9,3.2c-0.1,0-0.2,0-0.2,0.1L4,1.5c0.3-0.1,0.7-0.2,1-0.2C5.1,1.3,5.1,1.3,5.2,1.3z M3.7,1.6
	l0.7,1.8c-0.1,0-0.1,0.1-0.2,0.2L2.7,2.4C3,2.1,3.3,1.8,3.7,1.6z M2.4,5.6l1.8-0.7C4.2,5,4.2,5,4.3,5.1L3.1,6.5
	C2.8,6.3,2.5,5.9,2.4,5.6z M4.8,7.2l0.3-1.9c0.1,0,0.2,0,0.2-0.1L6.1,7C5.7,7.1,5.4,7.2,5,7.2C4.9,7.2,4.9,7.2,4.8,7.2z M6.3,6.9
	L5.7,5.1c0.1,0,0.1-0.1,0.2-0.2l1.5,1.2C7,6.4,6.7,6.7,6.3,6.9z M9.5,2.1c0.1,0,0.2-0.1,0.2-0.2c0-0.1-0.1-0.2-0.2-0.2H8.9V1.3h0.6
	c0.1,0,0.2-0.1,0.2-0.2S9.6,1,9.5,1H8.9V0.8c0-0.3-0.2-0.5-0.5-0.5H1.6c-0.3,0-0.5,0.2-0.5,0.5V1H0.5C0.4,1,0.3,1,0.3,1.1
	s0.1,0.2,0.2,0.2h0.6v0.5H0.5c-0.1,0-0.2,0.1-0.2,0.2c0,0.1,0.1,0.2,0.2,0.2h0.6v0.5H0.5c-0.1,0-0.2,0.1-0.2,0.2
	c0,0.1,0.1,0.2,0.2,0.2h0.6v0.5H0.5c-0.1,0-0.2,0.1-0.2,0.2c0,0.1,0.1,0.2,0.2,0.2h0.6v0.5H0.5c-0.1,0-0.2,0.1-0.2,0.2
	s0.1,0.2,0.2,0.2h0.6v0.5H0.5C0.4,4.9,0.3,4.9,0.3,5s0.1,0.2,0.2,0.2h0.6v0.5H0.5c-0.1,0-0.2,0.1-0.2,0.2C0.3,5.9,0.4,6,0.5,6h0.6
	v0.5H0.5c-0.1,0-0.2,0.1-0.2,0.2c0,0.1,0.1,0.2,0.2,0.2h0.6v0.5H0.5c-0.1,0-0.2,0.1-0.2,0.2c0,0.1,0.1,0.2,0.2,0.2h0.6v0.2
	c0,0.3,0.2,0.5,0.5,0.5h6.9c0.3,0,0.5-0.2,0.5-0.5V7.5h0.6c0.1,0,0.2-0.1,0.2-0.2c0-0.1-0.1-0.2-0.2-0.2H8.9V6.7h0.6
	c0.1,0,0.2-0.1,0.2-0.2c0-0.1-0.1-0.2-0.2-0.2H8.9V6h0.6c0.1,0,0.2-0.1,0.2-0.2c0-0.1-0.1-0.2-0.2-0.2H8.9V5.2h0.6
	c0.1,0,0.2-0.1,0.2-0.2S9.6,4.9,9.5,4.9H8.9V4.4h0.6c0.1,0,0.2-0.1,0.2-0.2S9.6,4.1,9.5,4.1H8.9V3.6h0.6c0.1,0,0.2-0.1,0.2-0.2
	c0-0.1-0.1-0.2-0.2-0.2H8.9V2.8h0.6c0.1,0,0.2-0.1,0.2-0.2c0-0.1-0.1-0.2-0.2-0.2H8.9V2.1H9.5z M8.6,7.7c0,0.1-0.1,0.2-0.2,0.2H1.6
	c-0.1,0-0.2-0.1-0.2-0.2V0.8c0-0.1,0.1-0.2,0.2-0.2h6.9c0.1,0,0.2,0.1,0.2,0.2V7.7z"/>
</svg>
