<?xml version="1.0" encoding="utf-8"?>
<!-- Generator: Adobe Illustrator 24.3.0, SVG Export Plug-In . SVG Version: 6.00 Build 0)  -->
<svg version="1.1" id="Layer_1" xmlns="http://www.w3.org/2000/svg" xmlns:xlink="http://www.w3.org/1999/xlink" x="0px" y="0px"
	 viewBox="0 0 10 10" style="enable-background:new 0 0 10 10;" xml:space="preserve">
<style type="text/css">
	.st0{fill:#FFFFFF;}
</style>
<g>
	<path class="st0" d="M6.8,3.5c0-0.1-0.1-0.2-0.2-0.2H3.4c-0.1,0-0.2,0.1-0.2,0.2v3.3c0,0.1,0.1,0.2,0.2,0.2h3.3
		c0.1,0,0.2-0.1,0.2-0.2V3.5z M6.4,6.5H3.6V3.7h2.9V6.5z"/>
	<path class="st0" d="M9.7,4.2c0.1,0,0.2-0.1,0.2-0.2c0-0.1-0.1-0.2-0.2-0.2H8.4V3.2h0.7c0.1,0,0.2-0.1,0.2-0.2
		c0-0.1-0.1-0.2-0.2-0.2H8.4v0c0-0.6-0.5-1-1-1h0V1c0-0.1-0.1-0.2-0.2-0.2S6.9,0.9,6.9,1v0.7H6.2V0.2C6.2,0.1,6.2,0,6.1,0
		S5.9,0.1,5.9,0.2v1.5H5.2V1c0-0.1-0.1-0.2-0.2-0.2S4.8,0.9,4.8,1v0.7H4.1V0.2C4.1,0.1,4,0,3.9,0C3.8,0,3.8,0.1,3.8,0.2v1.5H3.1V1
		c0-0.1-0.1-0.2-0.2-0.2C2.8,0.8,2.7,0.9,2.7,1v0.7h0c-0.6,0-1,0.5-1,1v0H0.9C0.8,2.8,0.7,2.9,0.7,3c0,0.1,0.1,0.2,0.2,0.2h0.7v0.7
		H0.3C0.2,3.9,0.1,3.9,0.1,4c0,0.1,0.1,0.2,0.2,0.2h1.3v0.7H0.9C0.8,4.9,0.7,5,0.7,5.1s0.1,0.2,0.2,0.2h0.7V6H0.3
		C0.2,6,0.1,6.1,0.1,6.2s0.1,0.2,0.2,0.2h1.3v0.7H0.9c-0.1,0-0.2,0.1-0.2,0.2s0.1,0.2,0.2,0.2h0.7v0c0,0.6,0.5,1,1,1h0v0.7
		c0,0.1,0.1,0.2,0.2,0.2c0.1,0,0.2-0.1,0.2-0.2V8.5h0.7v1.3c0,0.1,0.1,0.2,0.2,0.2C4,10,4.1,9.9,4.1,9.8V8.5h0.7v0.7
		c0,0.1,0.1,0.2,0.2,0.2s0.2-0.1,0.2-0.2V8.5h0.7v1.3C5.9,9.9,6,10,6.1,10s0.2-0.1,0.2-0.2V8.5h0.7v0.7c0,0.1,0.1,0.2,0.2,0.2
		s0.2-0.1,0.2-0.2V8.5h0c0.6,0,1-0.5,1-1v0h0.7c0.1,0,0.2-0.1,0.2-0.2S9.2,7.1,9.1,7.1H8.4V6.4h1.3c0.1,0,0.2-0.1,0.2-0.2
		S9.8,6,9.7,6H8.4V5.3h0.7c0.1,0,0.2-0.1,0.2-0.2S9.2,4.9,9.1,4.9H8.4V4.2H9.7z M7.3,8.1H7.2c0,0,0,0,0,0c0,0,0,0,0,0h-1
		c0,0,0,0,0,0c0,0,0,0,0,0H5c0,0,0,0,0,0s0,0,0,0H4c0,0,0,0,0,0c0,0,0,0,0,0h-1c0,0,0,0,0,0c0,0,0,0,0,0H2.7C2.3,8.1,2,7.8,2,7.5
		V7.3c0,0,0,0,0,0s0,0,0,0v-1c0,0,0,0,0,0s0,0,0,0v-1c0,0,0,0,0,0c0,0,0,0,0,0v-1c0,0,0,0,0,0s0,0,0,0V3c0,0,0,0,0,0c0,0,0,0,0,0
		V2.8c0-0.4,0.3-0.7,0.7-0.7h0.2c0,0,0,0,0,0c0,0,0,0,0,0h1c0,0,0,0,0,0c0,0,0,0,0,0h1c0,0,0,0,0,0s0,0,0,0h1c0,0,0,0,0,0s0,0,0,0h1
		c0,0,0,0,0,0s0,0,0,0h0.2C7.7,2.1,8,2.4,8,2.8v0.2c0,0,0,0,0,0c0,0,0,0,0,0v1c0,0,0,0,0,0s0,0,0,0v1c0,0,0,0,0,0c0,0,0,0,0,0v1
		c0,0,0,0,0,0c0,0,0,0,0,0v1c0,0,0,0,0,0c0,0,0,0,0,0v0.2C8,7.8,7.7,8.1,7.3,8.1z"/>
</g>
</svg>
