<svg xmlns="http://www.w3.org/2000/svg" xmlns:xlink="http://www.w3.org/1999/xlink" version="1.1" x="0px" y="0px" viewBox="0 0 512 640" style="enable-background:new 0 0 512 512;" xml:space="preserve"><g><path d="M342,184c0-5-4-9-9-9H179c-5,0-9,4-9,9v154c0,5,4,9,9,9h154c5,0,9-4,9-9V184z M324,329H188V193h136V329z"/><path d="M478.1,220c5,0,9-4,9-9s-4-9-9-9H416v-33h32.1c5,0,9-4,9-9s-4-9-9-9H416v-0.7c0-27-22.3-49.3-49.3-49.3   H366V68.9c0-5-4-9-9-9s-9,4-9,9V101h-33V28.9c0-5-4-9-9-9s-9,4-9,9V101h-32V68.9c0-5-4-9-9-9s-9,4-9,9V101h-32V28.9c0-5-4-9-9-9   s-9,4-9,9V101h-33V68.9c0-5-4-9-9-9s-9,4-9,9V101h-0.7c-27,0-49.3,22.3-49.3,49.3v0.7H63.9c-5,0-9,4-9,9s4,9,9,9H96v33H33.9   c-5,0-9,4-9,9s4,9,9,9H96v32H63.9c-5,0-9,4-9,9s4,9,9,9H96v32H33.9c-5,0-9,4-9,9s4,9,9,9H96v33H63.9c-5,0-9,4-9,9s4,9,9,9H96v0.7   c0,27,22.3,49.3,49.3,49.3h0.7v32.1c0,5,4,9,9,9s9-4,9-9V421h33v62.1c0,5,4,9,9,9s9-4,9-9V421h32v32.1c0,5,4,9,9,9s9-4,9-9V421h32   v62.1c0,5,4,9,9,9s9-4,9-9V421h33v32.1c0,5,4,9,9,9s9-4,9-9V421h0.7c27,0,49.3-22.3,49.3-49.3V371h32.1c5,0,9-4,9-9s-4-9-9-9H416   v-33h62.1c5,0,9-4,9-9s-4-9-9-9H416v-32h32.1c5,0,9-4,9-9s-4-9-9-9H416v-32H478.1z M366.7,403h-8.9c-0.3,0-0.6-0.1-1-0.1   s-0.6,0.1-1,0.1h-48.4c-0.3,0-0.6-0.1-1-0.1s-0.6,0.1-1,0.1H257c-0.3,0-0.6-0.1-1-0.1s-0.6,0.1-1,0.1h-48.4c-0.3,0-0.6-0.1-1-0.1   s-0.6,0.1-1,0.1h-48.4c-0.3,0-0.6-0.1-1-0.1s-0.6,0.1-1,0.1h-8.9c-17.1,0-31.3-14.3-31.3-31.3v-8.9c0-0.3,0.1-0.6,0.1-1   s-0.1-0.6-0.1-1v-48.4c0-0.3,0.1-0.6,0.1-1s-0.1-0.6-0.1-1V262c0-0.3,0.1-0.6,0.1-1s-0.1-0.6-0.1-1v-48.5c0-0.3,0.1-0.6,0.1-1   s-0.1-0.6-0.1-1v-48.4c0-0.3,0.1-0.6,0.1-1s-0.1-0.6-0.1-1v-8.9c0-17.1,14.3-31.3,31.3-31.3h8.9c0.3,0,0.6,0.1,1,0.1s0.6-0.1,1-0.1   h48.4c0.3,0,0.6,0.1,1,0.1s0.6-0.1,1-0.1H255c0.3,0,0.6,0.1,1,0.1s0.6-0.1,1-0.1h48.4c0.3,0,0.6,0.1,1,0.1s0.6-0.1,1-0.1h48.4   c0.3,0,0.6,0.1,1,0.1s0.6-0.1,1-0.1h8.9c17.1,0,31.3,14.3,31.3,31.3v8.9c0,0.3-0.1,0.6-0.1,1s0.1,0.6,0.1,1v48.4   c0,0.3-0.1,0.6-0.1,1s0.1,0.6,0.1,1V260c0,0.3-0.1,0.6-0.1,1s0.1,0.6,0.1,1v48.5c0,0.3-0.1,0.6-0.1,1s0.1,0.6,0.1,1v48.4   c0,0.3-0.1,0.6-0.1,1s0.1,0.6,0.1,1v8.9C398,388.7,383.7,403,366.7,403z"/></g><text x="0" y="527" fill="#000000" font-size="5px" font-weight="bold" font-family="'Helvetica Neue', Helvetica, Arial-Unicode, Arial, Sans-serif">Created by Chandru</text><text x="0" y="532" fill="#000000" font-size="5px" font-weight="bold" font-family="'Helvetica Neue', Helvetica, Arial-Unicode, Arial, Sans-serif">from the Noun Project</text></svg>