<?xml version="1.0" encoding="utf-8"?>
<!-- Generator: Adobe Illustrator 24.3.0, SVG Export Plug-In . SVG Version: 6.00 Build 0)  -->
<svg version="1.1" id="Layer_1" xmlns="http://www.w3.org/2000/svg" xmlns:xlink="http://www.w3.org/1999/xlink" x="0px" y="0px"
	 viewBox="0 0 10 10" style="enable-background:new 0 0 10 10;" xml:space="preserve">
<style type="text/css">
	.st0{fill:#FFFFFF;}
</style>
<g>
	<path class="st0" d="M5.9,4.2C6.1,3.7,6.1,3,6.1,3c0-0.5-0.5-0.9-1.1-0.9S3.9,2.5,3.9,3c0,0.2,0.1,0.7,0.4,1.1C3.7,3.9,3,3.9,3,3.9
		C2.5,3.9,2.1,4.4,2.1,5S2.5,6.1,3,6.1c0.2,0,0.7-0.1,1.1-0.4C3.9,6.3,3.9,7,3.9,7c0,0.5,0.5,0.9,1.1,0.9S6.1,7.5,6.1,7
		c0-0.2-0.1-0.7-0.4-1.1C6.3,6.1,7,6.1,7,6.1c0.5,0,0.9-0.5,0.9-1.1S7.5,3.9,7,3.9C6.8,3.9,6.3,4,5.9,4.2z M4.3,5L4.3,5
		C3.9,5.3,3.2,5.6,3,5.6C2.8,5.6,2.6,5.3,2.6,5S2.8,4.4,3,4.4c0.3,0,1,0.1,1.3,0.3C4.3,4.8,4.3,4.9,4.3,5z M5,7.4
		C4.7,7.4,4.4,7.2,4.4,7c0-0.3,0.1-1,0.3-1.3c0.1,0,0.2,0.1,0.3,0.1C5.3,6.1,5.6,6.8,5.6,7C5.6,7.2,5.3,7.4,5,7.4z M4.8,5
		c0-0.1,0.1-0.2,0.2-0.2c0.1,0,0.2,0.1,0.2,0.2c0,0.1-0.1,0.2-0.2,0.2C4.9,5.2,4.8,5.1,4.8,5z M5.3,4.3C5.2,4.3,5.1,4.3,5,4.3h0
		C4.7,3.9,4.4,3.2,4.4,3c0-0.2,0.2-0.4,0.6-0.4c0.3,0,0.6,0.2,0.6,0.4C5.6,3.3,5.4,4,5.3,4.3z M7.4,5c0,0.3-0.2,0.6-0.4,0.6
		c-0.3,0-1-0.1-1.3-0.3c0-0.1,0.1-0.2,0.1-0.3v0C6.1,4.7,6.8,4.4,7,4.4C7.2,4.4,7.4,4.7,7.4,5z"/>
	<path class="st0" d="M9.2,0H0.8C0.4,0,0,0.4,0,0.8v8.3C0,9.6,0.4,10,0.8,10h8.3C9.6,10,10,9.6,10,9.2V0.8C10,0.4,9.6,0,9.2,0z
		 M9.4,9.2c0,0.2-0.1,0.3-0.3,0.3H0.8c-0.2,0-0.3-0.1-0.3-0.3V0.8c0-0.2,0.1-0.3,0.3-0.3h8.3c0.2,0,0.3,0.1,0.3,0.3L9.4,9.2L9.4,9.2
		L9.4,9.2z"/>
	<path class="st0" d="M5,1.1C2.9,1.1,1.1,2.9,1.1,5S2.9,8.9,5,8.9S8.9,7.1,8.9,5S7.1,1.1,5,1.1z M5,8.3C3.2,8.3,1.7,6.8,1.7,5
		S3.2,1.7,5,1.7S8.3,3.2,8.3,5S6.8,8.3,5,8.3z"/>
</g>
</svg>
