<?xml version="1.0" encoding="utf-8"?>
<!-- Generator: Adobe Illustrator 24.3.0, SVG Export Plug-In . SVG Version: 6.00 Build 0)  -->
<svg version="1.1" id="Layer_1" xmlns="http://www.w3.org/2000/svg" xmlns:xlink="http://www.w3.org/1999/xlink" x="0px" y="0px"
	 viewBox="0 0 10 10" style="enable-background:new 0 0 10 10;" xml:space="preserve">
<style type="text/css">
	.st0{fill:#FFFFFF;}
</style>
<g>
	<g>
		<path class="st0" d="M9.4,2.5H1.2V1c0-0.1-0.1-0.2-0.2-0.2H0.2C0.1,0.8,0,0.9,0,1s0.1,0.2,0.2,0.2h0.6v1.7H0.2C0.1,2.9,0,3,0,3.1
			v1.7C0,4.9,0.1,5,0.2,5h0.6v0.4H0.2C0.1,5.4,0,5.5,0,5.6v1.7c0,0.1,0.1,0.2,0.2,0.2h0.6V9c0,0.1,0.1,0.2,0.2,0.2S1.2,9.1,1.2,9v-1
			h0.8v0.6c0,0.1,0.1,0.2,0.2,0.2H6c0.1,0,0.2-0.1,0.2-0.2V7.9h0.4v0.6c0,0.1,0.1,0.2,0.2,0.2H9c0.1,0,0.2-0.1,0.2-0.2V7.9h0.2
			c0.3,0,0.6-0.3,0.6-0.6V3.1C10,2.8,9.7,2.5,9.4,2.5z M0.8,7.1H0.4V5.8h0.4V7.1z M0.8,4.6H0.4V3.3h0.4V4.6z M5.8,8.3H2.5V7.9h3.3
			V8.3z M8.8,8.3H7.1V7.9h1.7V8.3z M9.6,7.3c0,0.1-0.1,0.2-0.2,0.2H1.2V2.9h8.1c0.1,0,0.2,0.1,0.2,0.2V7.3z M8.5,5.4H5.6
			c-0.1,0-0.2,0.1-0.2,0.2s0.1,0.2,0.2,0.2h2.9c0.1,0,0.2-0.1,0.2-0.2S8.7,5.4,8.5,5.4z M8.5,6.2H5.6c-0.1,0-0.2,0.1-0.2,0.2
			c0,0.1,0.1,0.2,0.2,0.2h2.9c0.1,0,0.2-0.1,0.2-0.2C8.8,6.3,8.7,6.2,8.5,6.2z M8.5,3.8H5.6C5.5,3.8,5.4,3.8,5.4,4
			c0,0.1,0.1,0.2,0.2,0.2h2.9c0.1,0,0.2-0.1,0.2-0.2C8.8,3.8,8.7,3.8,8.5,3.8z M8.5,4.6H5.6c-0.1,0-0.2,0.1-0.2,0.2
			C5.4,4.9,5.5,5,5.6,5h2.9c0.1,0,0.2-0.1,0.2-0.2C8.8,4.7,8.7,4.6,8.5,4.6z M4.8,5C4.9,5,5,4.9,5,4.8c0-0.1-0.1-0.2-0.2-0.2H4.6
			V4.4c0-0.1-0.1-0.2-0.2-0.2H4.2V4c0-0.1-0.1-0.2-0.2-0.2C3.8,3.8,3.8,3.8,3.8,4v0.2H3.3V4c0-0.1-0.1-0.2-0.2-0.2S2.9,3.8,2.9,4
			v0.2H2.7c-0.1,0-0.2,0.1-0.2,0.2v0.2H2.3c-0.1,0-0.2,0.1-0.2,0.2C2.1,4.9,2.2,5,2.3,5h0.2v0.4H2.3c-0.1,0-0.2,0.1-0.2,0.2
			s0.1,0.2,0.2,0.2h0.2V6c0,0.1,0.1,0.2,0.2,0.2h0.2v0.2c0,0.1,0.1,0.2,0.2,0.2s0.2-0.1,0.2-0.2V6.2h0.4v0.2c0,0.1,0.1,0.2,0.2,0.2
			c0.1,0,0.2-0.1,0.2-0.2V6.2h0.2c0.1,0,0.2-0.1,0.2-0.2V5.8h0.2C4.9,5.8,5,5.8,5,5.6S4.9,5.4,4.8,5.4H4.6V5H4.8z M4.2,5.8H2.9V4.6
			h1.2V5.8z"/>
	</g>
</g>
</svg>
