<?xml version="1.0" encoding="utf-8"?>
<!-- Generator: Adobe Illustrator 24.3.0, SVG Export Plug-In . SVG Version: 6.00 Build 0)  -->
<svg version="1.1" id="Layer_1" xmlns="http://www.w3.org/2000/svg" xmlns:xlink="http://www.w3.org/1999/xlink" x="0px" y="0px"
	 viewBox="0 0 10 10" style="enable-background:new 0 0 10 10;" xml:space="preserve">
<style type="text/css">
	.st0{fill:#FFFFFF;}
</style>
<g>
	<g>
		<path class="st0" d="M7.7,0H2.3c-0.6,0-1,0.5-1,1V9c0,0.6,0.5,1,1,1h5.4c0.6,0,1-0.5,1-1V1C8.8,0.5,8.3,0,7.7,0z M8.3,9
			c0,0.3-0.3,0.6-0.6,0.6H2.3C2,9.6,1.7,9.3,1.7,9V1c0-0.3,0.3-0.6,0.6-0.6h5.4C8,0.4,8.3,0.7,8.3,1V9z M7.3,5.5
			C7.7,5,7.9,4.4,7.9,3.8c0-1.6-1.3-2.9-2.9-2.9S2.1,2.1,2.1,3.8c0,0.7,0.2,1.3,0.6,1.8L2.1,6.8c0,0,0,0.1,0,0.1V9
			c0,0.1,0.1,0.2,0.2,0.2h5.4c0.1,0,0.2-0.1,0.2-0.2V6.9c0,0,0-0.1,0-0.1L7.3,5.5z M2.5,3.8c0-1.4,1.1-2.5,2.5-2.5s2.5,1.1,2.5,2.5
			c0,1.3-1,2.4-2.3,2.5l0.4-1c0-0.1,0-0.2-0.1-0.2C5.5,5,5.4,5,5.3,5l-1.2,1C3.1,5.7,2.5,4.8,2.5,3.8z M4.9,6L4.2,7.6
			c0,0,0,0.1-0.1,0.1c-0.2,0.2-0.4,0.2-0.6,0c-0.1,0-0.2-0.1-0.2-0.2s0-0.2,0.1-0.3L4.9,6z M7.5,8.8h-5V6.9l0.5-1
			c0.2,0.2,0.5,0.4,0.8,0.5L3.2,6.9C3,7.1,2.9,7.3,2.9,7.5S3,7.9,3.2,8.1c0.2,0.2,0.4,0.2,0.6,0.2s0.4-0.1,0.6-0.2
			C4.4,8,4.5,7.9,4.5,7.8L5,6.7c0.8,0,1.5-0.3,2-0.8l0.5,1L7.5,8.8L7.5,8.8z M5,4.6c0.5,0,0.8-0.4,0.8-0.8S5.5,2.9,5,2.9
			S4.2,3.3,4.2,3.8S4.5,4.6,5,4.6z M5,3.3c0.2,0,0.4,0.2,0.4,0.4S5.2,4.2,5,4.2S4.6,4,4.6,3.8S4.8,3.3,5,3.3z"/>
	</g>
</g>
</svg>
