<?xml version="1.0" encoding="utf-8"?>
<!-- Generator: Adobe Illustrator 24.3.0, SVG Export Plug-In . SVG Version: 6.00 Build 0)  -->
<svg version="1.1" id="Layer_1" xmlns="http://www.w3.org/2000/svg" xmlns:xlink="http://www.w3.org/1999/xlink" x="0px" y="0px"
	 viewBox="0 0 10 10" style="enable-background:new 0 0 10 10;" xml:space="preserve">
<style type="text/css">
	.st0{fill:#FFFFFF;}
</style>
<path class="st0" d="M2.2,5.3c0.2,0,0.3-0.1,0.3-0.3V4.2c0-0.2-0.1-0.3-0.3-0.3H1.4C1.3,3.9,1.1,4,1.1,4.2V5c0,0.2,0.1,0.3,0.3,0.3
	H2.2z M1.6,4.3h0.6v0.6H1.6V4.3z"/>
<path class="st0" d="M3.3,5.3h0.8c0.2,0,0.3-0.1,0.3-0.3V4.2c0-0.2-0.1-0.3-0.3-0.3H3.3C3.1,3.9,3,4,3,4.2V5C3,5.2,3.1,5.3,3.3,5.3z
	 M3.4,4.3H4v0.6H3.4V4.3z"/>
<path class="st0" d="M6,3.9H5.2C5,3.9,4.9,4,4.9,4.2V5c0,0.2,0.1,0.3,0.3,0.3H6c0.2,0,0.3-0.1,0.3-0.3V4.2C6.3,4,6.2,3.9,6,3.9z
	 M5.9,4.9H5.3V4.3h0.6V4.9z"/>
<path class="st0" d="M7.8,3.9H7C6.8,3.9,6.7,4,6.7,4.2v1.4C6.7,5.9,6.8,6,7,6l0,0h0.8C8,6,8.1,5.9,8.1,5.7l0,0V4.2
	C8.1,4,8,3.9,7.8,3.9z M7.7,5.6H7.1V4.3h0.6V5.6z"/>
<path class="st0" d="M9.7,5.6H9.2V5.1h0.5C9.9,5.1,10,5,10,4.8c0,0,0,0,0,0V3.7c0-0.2-0.1-0.3-0.3-0.3H9.2C9.2,3.1,9,3,8.8,3H0.4
	C0.2,3,0,3.2,0,3.4v1.2c0.2,0,0.3,0.1,0.3,0.3S0.2,5.3,0,5.3v1.2C0,6.8,0.2,7,0.4,7h8.3C9,7,9.2,6.9,9.2,6.7h0.5
	c0.2,0,0.3-0.1,0.3-0.3V5.9C10,5.7,9.9,5.6,9.7,5.6z M9.2,4.7V4.4h0.4v0.2L9.2,4.7z M9.6,4H9.2V3.8h0.4L9.6,4z M0.4,6.6V5.6
	c0.4-0.2,0.4-0.7,0.2-1.1C0.6,4.5,0.5,4.4,0.4,4.4V3.4h8.3v3.1H0.4z M9.6,6.2H9.2V6h0.4V6.2z"/>
<rect x="1.2" y="5.7" class="st0" width="0.6" height="0.3"/>
<rect x="2.1" y="5.7" class="st0" width="0.6" height="0.3"/>
<rect x="3" y="5.7" class="st0" width="2.2" height="0.3"/>
<rect x="5.6" y="5.7" class="st0" width="0.8" height="0.3"/>
</svg>
