<?xml version="1.0" encoding="utf-8"?>
<!-- Generator: Adobe Illustrator 24.3.0, SVG Export Plug-In . SVG Version: 6.00 Build 0)  -->
<svg version="1.1" id="Layer_1" xmlns="http://www.w3.org/2000/svg" xmlns:xlink="http://www.w3.org/1999/xlink" x="0px" y="0px"
	 viewBox="0 0 10 10" style="enable-background:new 0 0 10 10;" xml:space="preserve">
<style type="text/css">
	.st0{fill:#FFFFFF;}
</style>
<g>
	<path class="st0" d="M10,4H9.7V1.8c0-0.3-0.2-0.5-0.5-0.5H0.8c-0.3,0-0.5,0.2-0.5,0.5v0.8H0v1.3h0.3v0.6H0v1.3h0.3v1h0.2
		C0.8,6.8,1,7,1,7.3c0,0.3-0.2,0.5-0.5,0.5H0.3v0.5c0,0.3,0.2,0.5,0.5,0.5h8.4c0.3,0,0.5-0.2,0.5-0.5V6H10V4z M0.3,2.9h0.3v0.6H0.3
		V2.9z M0.3,4.8h0.3v0.6H0.3V4.8z M9.4,8.2c0,0.1-0.1,0.2-0.2,0.2H0.8c-0.1,0-0.2-0.1-0.2-0.2V8C1,8,1.3,7.6,1.3,7.3
		c0-0.4-0.3-0.7-0.6-0.8V5.8H1V4.5H0.6V3.9H1V2.6H0.6V1.8c0-0.1,0.1-0.2,0.2-0.2h8.4c0.1,0,0.2,0.1,0.2,0.2V4H9V6h0.3V8.2z M9.7,5.6
		H9.4V4.4h0.3V5.6z"/>
	<path class="st0" d="M6.5,2.9H6.1V2.6H5.8v0.3H5.5V2.6H5.2v0.3H4.8V2.6H4.5v0.3H4.2v0.3H3.9v0.3h0.3v0.3H3.9v0.3h0.3v0.3H3.9v0.3
		h0.3v0.3h0.3v0.3h0.3V5.2h0.3v0.3h0.3V5.2h0.3v0.3h0.3V5.2h0.3V4.8h0.3V4.5H6.5V4.2h0.3V3.9H6.5V3.5h0.3V3.2H6.5V2.9z M6.1,4.8H4.5
		V3.2h1.6V4.8z"/>
	<path class="st0" d="M3.2,6.1h4.2V1.9H3.2V6.1z M3.5,2.3h3.5v3.5H3.5V2.3z"/>
	<rect x="4.8" y="3.5" class="st0" width="1" height="0.3"/>
	<rect x="4.8" y="4.2" class="st0" width="1" height="0.3"/>
	<rect x="8.4" y="1.9" class="st0" width="0.3" height="6.1"/>
	<rect x="7.7" y="1.9" class="st0" width="0.3" height="6.1"/>
	<rect x="1.3" y="1.9" class="st0" width="0.6" height="0.3"/>
	<rect x="2.3" y="1.9" class="st0" width="0.6" height="0.3"/>
	<rect x="1.3" y="2.6" class="st0" width="0.6" height="0.3"/>
	<rect x="2.3" y="2.6" class="st0" width="0.6" height="0.3"/>
	<path class="st0" d="M1.9,4.5c0.4,0,0.6-0.3,0.6-0.6c0-0.4-0.3-0.6-0.6-0.6S1.3,3.5,1.3,3.9C1.3,4.2,1.6,4.5,1.9,4.5z M1.9,3.5
		c0.2,0,0.3,0.1,0.3,0.3c0,0.2-0.1,0.3-0.3,0.3C1.8,4.2,1.6,4,1.6,3.9C1.6,3.7,1.8,3.5,1.9,3.5z"/>
	<path class="st0" d="M2.9,4.8H1.3v1.3h1.6V4.8z M2.6,5.8h-1V5.2h1V5.8z"/>
	<path class="st0" d="M2.6,8.1h4.8V6.5H2.6V8.1z M2.9,7.4h0.3v0.3H2.9V7.4z M4.8,7.4h0.3v0.3H4.8V7.4z M4.5,7.7H4.2V7.4h0.3V7.7z
		 M5.5,7.4h0.3v0.3H5.5V7.4z M6.1,7.4h0.3v0.3H6.1V7.4z M6.1,7.1V6.8h0.3v0.3H6.1z M5.8,7.1H5.5V6.8h0.3V7.1z M5.2,7.1H4.8V6.8h0.3
		V7.1z M4.5,7.1H4.2V6.8h0.3V7.1z M3.9,7.1H3.5V6.8h0.3V7.1z M3.9,7.4v0.3H3.5V7.4H3.9z M6.8,7.7V7.4h0.3v0.3H6.8z M7.1,7.1H6.8V6.8
		h0.3V7.1z M3.2,6.8v0.3H2.9V6.8H3.2z"/>
	<rect x="1.6" y="6.5" class="st0" width="0.6" height="0.3"/>
	<rect x="1.6" y="7.1" class="st0" width="0.6" height="0.3"/>
	<rect x="1.6" y="7.7" class="st0" width="0.6" height="0.3"/>
</g>
</svg>
