<svg xmlns="http://www.w3.org/2000/svg" xmlns:xlink="http://www.w3.org/1999/xlink" version="1.1" x="0px" y="0px" viewBox="0 0 512 640" enable-background="new 0 0 512 512" xml:space="preserve"><g><path d="M302.8,217.4c9-29,10.3-63.5,10.3-64.1c0-25.7-25.6-46.5-57.1-46.5c-31.5,0-57.1,20.9-57.1,46.5c0,11,7.5,34.4,18.4,56   c-29-9-63.4-10.2-63.9-10.2c-25.7,0-46.5,25.6-46.5,57.1c0,31.5,20.9,57.1,46.5,57.1c10.9,0,34.1-7.4,55.6-18.2   c-8.9,28.9-10.1,63-10.1,63.6c0,25.7,25.6,46.5,57.1,46.5c31.5,0,57.1-20.9,57.1-46.5c0-10.8-7.4-34-18.1-55.5   c28.9,8.9,63.2,10.1,63.7,10.1c25.7,0,46.5-25.6,46.5-57.1c0-31.5-20.9-57.1-46.5-57.1C347.7,199.1,324.4,206.6,302.8,217.4z    M218.3,256.2v0.4c-20.1,15.2-56.2,28.5-64.9,28.5c-8.7,0-18.3-11.9-18.3-28.9c0-17,9.6-28.9,18.3-28.9c17.3,0,52.2,5.7,68.3,13.5   C219.5,245.7,218.3,250.9,218.3,256.2z M256,376.9c-17,0-28.9-9.6-28.9-18.3c0-17.2,5.7-51.9,13.5-68.1c5,2.3,10.4,3.4,16,3.3   c15.1,20.1,28.3,56.1,28.3,64.7C284.9,367.3,273,376.9,256,376.9z M246.5,256c0-5.2,4.2-9.5,9.5-9.5c5.2,0,9.5,4.2,9.5,9.5   c0,5.2-4.2,9.5-9.5,9.5C250.8,265.5,246.5,261.2,246.5,256z M271.2,221.8c-4.7-2.1-9.9-3.2-15.2-3.2h-0.2   c-15.2-20-28.6-56.4-28.6-65.2c0-8.7,11.9-18.3,28.9-18.3c17,0,28.9,9.6,28.9,18.3C284.9,172.1,278.6,206.2,271.2,221.8z    M376.9,256.2c0,17-9.6,28.9-18.3,28.9c-17.3,0-52.2-5.7-68.3-13.5c2.2-4.8,3.3-10,3.3-15.3v-0.4c20.1-15.2,56.2-28.5,64.9-28.5   C367.3,227.3,376.9,239.2,376.9,256.2z"/><path d="M467.7,2H44.3C21,2,2,21,2,44.3v423.3C2,491,21,510,44.3,510h423.3c23.3,0,42.3-19,42.3-42.3V44.3C510,21,491,2,467.7,2z    M481.8,467.7c0,7.8-6.3,14.1-14.1,14.1H44.3c-7.8,0-14.1-6.3-14.1-14.1V44.3c0-7.8,6.3-14.1,14.1-14.1h423.3   c7.8,0,14.1,6.3,14.1,14.1V467.7z"/><path d="M256,58.6C147.2,58.6,58.6,147.2,58.6,256c0,108.8,88.5,197.4,197.4,197.4S453.4,364.8,453.4,256   C453.4,147.2,364.8,58.6,256,58.6z M256,425.2c-93.3,0-169.2-75.9-169.2-169.2c0-93.3,75.9-169.2,169.2-169.2   S425.2,162.7,425.2,256C425.2,349.3,349.3,425.2,256,425.2z"/></g><text x="0" y="527" fill="#000000" font-size="5px" font-weight="bold" font-family="'Helvetica Neue', Helvetica, Arial-Unicode, Arial, Sans-serif">Created by Icon Fair</text><text x="0" y="532" fill="#000000" font-size="5px" font-weight="bold" font-family="'Helvetica Neue', Helvetica, Arial-Unicode, Arial, Sans-serif">from the Noun Project</text></svg>