<svg xmlns="http://www.w3.org/2000/svg" viewBox="0 0 32 40" x="0px" y="0px"><title>power supply</title><path d="M25.31,7.54H6.69A2.44,2.44,0,0,0,4.25,10V22a2.44,2.44,0,0,0,2.44,2.44H25.31A2.44,2.44,0,0,0,27.75,22V10A2.44,2.44,0,0,0,25.31,7.54ZM26.75,22a1.44,1.44,0,0,1-1.44,1.44H6.69A1.44,1.44,0,0,1,5.25,22V10A1.44,1.44,0,0,1,6.69,8.54H25.31A1.44,1.44,0,0,1,26.75,10ZM13.05,10.23v-.9h-1v.9A5.8,5.8,0,0,0,6.79,15.5h-.9v1h.9a5.8,5.8,0,0,0,5.27,5.27v.9h1v-.9a5.8,5.8,0,0,0,5.27-5.27h.9v-1h-.9A5.8,5.8,0,0,0,13.05,10.23Zm4.24,5.27H15.71a3.2,3.2,0,0,0-2.66-2.66V11.26A4.77,4.77,0,0,1,17.29,15.5Zm-5.24,0H10.41a2.21,2.21,0,0,1,1.65-1.65Zm0,1v1.65a2.21,2.21,0,0,1-1.65-1.65Zm1,0H14.7a2.21,2.21,0,0,1-1.65,1.65Zm0-1V13.85A2.21,2.21,0,0,1,14.7,15.5Zm-1-4.24v1.58A3.2,3.2,0,0,0,9.4,15.5H7.81A4.77,4.77,0,0,1,12.05,11.26ZM7.81,16.5H9.4a3.2,3.2,0,0,0,2.66,2.66v1.58A4.77,4.77,0,0,1,7.81,16.5Zm5.24,4.24V19.16a3.2,3.2,0,0,0,2.66-2.66h1.58A4.77,4.77,0,0,1,13.05,20.74ZM24.46,16H21.38a1.49,1.49,0,0,0-1.49,1.49V20a1.49,1.49,0,0,0,1.49,1.49h3.08A1.49,1.49,0,0,0,26,20V17.46A1.49,1.49,0,0,0,24.46,16ZM25,20a.49.49,0,0,1-.49.49H21.38a.49.49,0,0,1-.49-.49V17.46a.49.49,0,0,1,.49-.49h3.08a.49.49,0,0,1,.49.49ZM21.5,17.83h1v1.76h-1Zm1.83,0h1v1.76h-1Zm1-5.83V9.72H21.5v4.73h2.83ZM22.5,10.72h.83V11H22.5Zm0,2.73V12h.83v1.45Z"/><text x="0" y="47" fill="#000000" font-size="5px" font-weight="bold" font-family="'Helvetica Neue', Helvetica, Arial-Unicode, Arial, Sans-serif">Created by omeneko</text><text x="0" y="52" fill="#000000" font-size="5px" font-weight="bold" font-family="'Helvetica Neue', Helvetica, Arial-Unicode, Arial, Sans-serif">from the Noun Project</text></svg>