<svg xmlns="http://www.w3.org/2000/svg" xmlns:xlink="http://www.w3.org/1999/xlink" version="1.1" x="0px" y="0px" viewBox="0 0 1024 1280" style="enable-background:new 0 0 1024 1024;" xml:space="preserve"><g><g><g><path d="M299.9,504.1c-36.1,0-72.2,0-108.3,0c-2.3,0-4.6,0-6.9,0c-0.4,0-0.7,0-1.1,0c-0.1,0-1.3,0-1.4-0.1     c4.2,0.5-1.8-0.5,0.6-0.1c0.2,0.1,0.4,0.1,0.6,0.2c-1.4-0.9-1.5-0.9-0.1,0.1c-0.3-0.3-0.6-0.6-0.9-0.9c1,1.4,1,1.3,0.1-0.1     c0.1,0.2,0.1,0.4,0.2,0.6c0.4,1,0.3,0.8-0.2-0.7c0,0.1,0,3.7,0-0.1c0-0.1,0-0.2,0-0.2c0-0.6,0-1.3,0-1.9c0-2.7,0-5.4,0-8.1     c0-22,0-44,0-66c0-9.8,0-19.6,0-29.4c0-2.8,0-5.6,0-8.4c0-0.6,0-1.2,0-1.8c0-0.1,0-0.2,0-0.3c0-0.1,0-1.3,0.1-1.4     c-0.2,1.5-0.2,1.7,0.1,0.7c0.3-1,0.3-0.9-0.2,0.5c0.2-0.4,0.5-0.7,0.7-1.1c-0.2,0.3-0.5,0.7-0.7,1c0.3-0.3,0.6-0.6,0.9-0.9     c-1.2,0.8-1.3,1-0.4,0.4c0.2-0.1,0.4-0.2,0.6-0.3c-1.6,0.6-1.6,0.6,0.1,0c-0.1-0.1-3.7,0,0.1,0c0.3,0,0.7,0,1,0c2.3,0,4.7,0,7,0     c9.3,0,18.5,0,27.8,0c22.4,0,44.7,0,67.1,0c4.5,0,8.9,0,13.4,0c4,0-0.2,0.2,0.1,0c0.2,0.1,0.4,0.1,0.6,0.2c1,0.3,0.9,0.3-0.5-0.2     c0.2,0.1,0.4,0.2,0.6,0.3c0.9,0.6,0.8,0.4-0.4-0.4c0.3,0.3,0.6,0.6,0.9,0.9c-0.2-0.3-0.5-0.7-0.7-1c0.2,0.4,0.5,0.7,0.7,1.1     c-0.5-1.4-0.6-1.6-0.2-0.5c0.9,1.8,0.2-3.1,0.2,0.7c0,0.1,0,0.2,0,0.3c0,1.7,0,3.5,0,5.2c0,36.8,0.2,73.6,0,110.5     c0,0.1,0,0.2,0,0.3c0,1-0.1,2.2,0,0.7c0-0.2,0-0.4,0-0.7c-0.5,1.7-0.5,1.7,0,0.1c-0.1,0.2-0.2,0.4-0.3,0.6     c-0.6,0.9-0.4,0.8,0.4-0.4c-0.2,0.2-0.3,0.3-0.5,0.5c-0.8,0.7-0.6,0.6,0.5-0.3c-0.4,0.2-0.7,0.5-1.1,0.7c0.4-0.1,0.8-0.3,1.2-0.4     C300.9,503.8,300.4,504,299.9,504.1C301.8,504,301.8,504,299.9,504.1c-7.8,0.3-15.4,6.7-15,15c0.4,7.8,6.6,15.4,15,15     c18.5-0.8,31.1-15.1,31.1-33.2c0-7.8,0-15.6,0-23.4c0-24.1,0-48.2,0-72.4c0-6,0.2-12.1,0-18.1c-0.6-17.9-14.2-31.2-32.1-31.4     c-19-0.2-38.1,0-57.1,0s-38.1-0.2-57.1,0c-17.9,0.2-31.5,13.5-32.1,31.4c-0.2,5.9,0,11.8,0,17.7c0,24.2,0,48.5,0,72.7     c0,7.8,0,15.6,0,23.4c0,18.1,12.6,32.5,31.1,33.2c16.2,0.6,32.5,0,48.7,0c21.2,0,42.5,0,63.7,0c1.3,0,2.5,0,3.8,0     c7.8,0,15.4-6.9,15-15C314.6,511,308.4,504.1,299.9,504.1z"/></g></g><g><g><path d="M570.1,504.1c-36.1,0-72.2,0-108.3,0c-2.3,0-4.6,0-6.9,0c-0.4,0-0.7,0-1.1,0c-0.1,0-1.3,0-1.4-0.1     c4.2,0.5-1.8-0.5,0.6-0.1c0.2,0.1,0.4,0.1,0.6,0.2c-1.4-0.9-1.5-0.9-0.1,0.1c-0.3-0.3-0.6-0.6-0.9-0.9c1,1.4,1,1.3,0.1-0.1     c0.1,0.2,0.1,0.4,0.2,0.6c0.4,1,0.3,0.8-0.2-0.7c0,0.1,0,3.7,0-0.1c0-0.1,0-0.2,0-0.2c0-0.6,0-1.3,0-1.9c0-2.7,0-5.4,0-8.1     c0-22,0-44,0-66c0-9.8,0-19.6,0-29.4c0-2.8,0-5.6,0-8.4c0-0.6,0-1.2,0-1.8c0-0.1,0-0.2,0-0.3c0-0.1,0-1.3,0.1-1.4     c-0.2,1.5-0.2,1.7,0.1,0.7c0.3-1,0.3-0.9-0.2,0.5c0.2-0.4,0.5-0.7,0.7-1.1c-0.2,0.3-0.5,0.7-0.7,1c0.3-0.3,0.6-0.6,0.9-0.9     c-1.2,0.8-1.3,1-0.4,0.4c0.2-0.1,0.4-0.2,0.6-0.3c-1.6,0.6-1.6,0.6,0.1,0c-0.1-0.1-3.7,0,0.1,0c0.3,0,0.7,0,1,0c2.3,0,4.7,0,7,0     c9.3,0,18.5,0,27.8,0c22.4,0,44.7,0,67.1,0c4.5,0,8.9,0,13.4,0c4,0-0.2,0.2,0.1,0c0.2,0.1,0.4,0.1,0.6,0.2c1,0.3,0.9,0.3-0.5-0.2     c0.2,0.1,0.4,0.2,0.6,0.3c0.9,0.6,0.8,0.4-0.4-0.4c0.3,0.3,0.6,0.6,0.9,0.9c-0.2-0.3-0.5-0.7-0.7-1c0.2,0.4,0.5,0.7,0.7,1.1     c-0.5-1.4-0.6-1.6-0.2-0.5c0.9,1.8,0.2-3.1,0.2,0.7c0,0.1,0,0.2,0,0.3c0,1.7,0,3.5,0,5.2c0,36.8,0.2,73.6,0,110.5     c0,0.1,0,0.2,0,0.3c0,1-0.1,2.2,0,0.7c0-0.2,0-0.4,0-0.7c-0.5,1.7-0.5,1.7,0,0.1c-0.1,0.2-0.2,0.4-0.3,0.6     c-0.6,0.9-0.4,0.8,0.4-0.4c-0.2,0.2-0.3,0.3-0.5,0.5c-0.8,0.7-0.6,0.6,0.5-0.3c-0.4,0.2-0.7,0.5-1.1,0.7c0.4-0.1,0.8-0.3,1.2-0.4     C571,503.8,570.6,504,570.1,504.1C572,504,571.9,504,570.1,504.1c-7.8,0.3-15.4,6.7-15,15c0.4,7.8,6.6,15.4,15,15     c18.5-0.8,31.1-15.1,31.1-33.2c0-7.8,0-15.6,0-23.4c0-24.1,0-48.2,0-72.4c0-6,0.2-12.1,0-18.1c-0.6-17.9-14.2-31.2-32.1-31.4     c-19-0.2-38.1,0-57.1,0c-19,0-38.1-0.2-57.1,0c-17.9,0.2-31.5,13.5-32.1,31.4c-0.2,5.9,0,11.8,0,17.7c0,24.2,0,48.5,0,72.7     c0,7.8,0,15.6,0,23.4c0,18.1,12.6,32.5,31.1,33.2c16.2,0.6,32.5,0,48.7,0c21.2,0,42.5,0,63.7,0c1.3,0,2.5,0,3.8,0     c7.8,0,15.4-6.9,15-15C584.8,511,578.5,504.1,570.1,504.1z"/></g></g><g><g><path d="M840.3,504.1c-36.1,0-72.2,0-108.3,0c-2.3,0-4.6,0-6.9,0c-0.4,0-0.7,0-1.1,0c-0.1,0-1.3,0-1.4-0.1     c4.2,0.5-1.8-0.5,0.6-0.1c0.2,0.1,0.4,0.1,0.6,0.2c-1.4-0.9-1.5-0.9-0.1,0.1c-0.3-0.3-0.6-0.6-0.9-0.9c1,1.4,1,1.3,0.1-0.1     c0.1,0.2,0.1,0.4,0.2,0.6c0.4,1,0.3,0.8-0.2-0.7c0,0.1,0,3.7,0-0.1c0-0.1,0-0.2,0-0.2c0-0.6,0-1.3,0-1.9c0-2.7,0-5.4,0-8.1     c0-22,0-44,0-66c0-9.8,0-19.6,0-29.4c0-2.8,0-5.6,0-8.4c0-0.6,0-1.2,0-1.8c0-0.1,0-0.2,0-0.3c0-0.1,0-1.3,0.1-1.4     c-0.2,1.5-0.2,1.7,0.1,0.7c0.3-1,0.3-0.9-0.2,0.5c0.2-0.4,0.5-0.7,0.7-1.1c-0.2,0.3-0.5,0.7-0.7,1c0.3-0.3,0.6-0.6,0.9-0.9     c-1.2,0.8-1.3,1-0.4,0.4c0.2-0.1,0.4-0.2,0.6-0.3c-1.6,0.6-1.6,0.6,0.1,0c-0.1-0.1-3.7,0,0.1,0c0.3,0,0.7,0,1,0c2.3,0,4.7,0,7,0     c9.3,0,18.5,0,27.8,0c22.4,0,44.7,0,67.1,0c4.5,0,8.9,0,13.4,0c4,0-0.2,0.2,0.1,0c0.2,0.1,0.4,0.1,0.6,0.2c1,0.3,0.9,0.3-0.5-0.2     c0.2,0.1,0.4,0.2,0.6,0.3c0.9,0.6,0.8,0.4-0.4-0.4c0.3,0.3,0.6,0.6,0.9,0.9c-0.2-0.3-0.5-0.7-0.7-1c0.2,0.4,0.5,0.7,0.7,1.1     c-0.5-1.4-0.6-1.6-0.2-0.5c0.9,1.8,0.2-3.1,0.2,0.7c0,0.1,0,0.2,0,0.3c0,1.7,0,3.5,0,5.2c0,36.8,0.2,73.6,0,110.5     c0,0.1,0,0.2,0,0.3c0,1-0.1,2.2,0,0.7c0-0.2,0-0.4,0-0.7c-0.5,1.7-0.5,1.7,0,0.1c-0.1,0.2-0.2,0.4-0.3,0.6     c-0.6,0.9-0.4,0.8,0.4-0.4c-0.2,0.2-0.3,0.3-0.5,0.5c-0.8,0.7-0.6,0.6,0.5-0.3c-0.4,0.2-0.7,0.5-1.1,0.7c0.4-0.1,0.8-0.3,1.2-0.4     C841.2,503.8,840.8,504,840.3,504.1C842.1,504,842.1,504,840.3,504.1c-7.8,0.3-15.4,6.7-15,15c0.4,7.8,6.6,15.4,15,15     c18.5-0.8,31.1-15.1,31.1-33.2c0-7.8,0-15.6,0-23.4c0-24.1,0-48.2,0-72.4c0-6,0.2-12.1,0-18.1c-0.6-17.9-14.2-31.2-32.1-31.4     c-19-0.2-38.1,0-57.1,0c-19,0-38.1-0.2-57.1,0c-17.9,0.2-31.5,13.5-32.1,31.4c-0.2,5.9,0,11.8,0,17.7c0,24.2,0,48.5,0,72.7     c0,7.8,0,15.6,0,23.4c0,18.1,12.6,32.5,31.1,33.2c16.2,0.6,32.5,0,48.7,0c21.2,0,42.5,0,63.7,0c1.3,0,2.5,0,3.8,0     c7.8,0,15.4-6.9,15-15C854.9,511,848.7,504.1,840.3,504.1z"/></g></g><g><g><path d="M961,634.5c0,0.7-0.9,4.6,0,1.4c-0.3,1.3-0.6,2.6-1.1,3.8c1.2-3.1-0.6,0.6-0.8,1.1     c-1.6,3.1,1.8-1.3-0.8,1c-0.4,0.3-3.6,2.9-0.9,1c-0.7,0.5-1.5,0.9-2.2,1.4c-2.8,2,2.2-0.3-1.2,0.6c-0.8,0.3-1.7,0.5-2.6,0.7     c1.8-0.2,1.8-0.2,0,0c-0.7,0-1.4,0-2.2,0c-2.1,0-4.3,0-6.4,0c-10.1,0-20.2,0-30.3,0c-39.4,0-78.8,0-118.2,0     c-56.2,0-112.3,0-168.5,0c-62.5,0-125,0-187.5,0c-58.4,0-116.8,0-175.3,0c-43.7,0-87.5,0-131.2,0c-19.1,0-38.3,0.3-57.4,0     c-0.1,0-0.3,0-0.4,0c0,0,0,0,0,0c-0.7,0-4.6-0.9-1.4,0c-0.8-0.2-5.4-2.2-2.6-0.7c-1.1-0.6-2.3-1.2-3.3-2c2.2,1.6,0.5,0.4,0-0.1     c-0.3-0.4-2.9-3.6-1-0.9c-0.7-1.1-1.4-2.2-2-3.3c1.6,2.9-0.1-0.8-0.3-1.3c-1.4-3.4-0.2,2.4-0.3-1.3c0-0.5,0-1,0-1.5     c-0.1-3,0-6.1,0-9.2c0-17.8,0-35.7,0-53.5c0-59.2,0-118.4,0-177.7c0-44.3,0-88.5,0-132.8c0-3.1-0.3-6.4,0.1-9.5     c-0.4,3.5,0.4-0.8,0.6-1.2c0.9-3.8-0.9,1.3,0.3-0.6c0.5-0.9,1.1-1.9,1.7-2.8c-1.9,2.7,0.7-0.5,1-0.9c2.3-2.6-2.1,0.8,1-0.8     c0.4-0.2,4.2-2,1.1-0.8c1.2-0.5,2.5-0.8,3.8-1.1c-3.1,0.8,0.5,0,1.4,0c0.3,0,0.6,0,0.9,0c6.4,0,12.8,0,19.2,0     c33.7,0,67.3,0,101,0c53,0,106.1,0,159.1,0c61.9,0,123.8,0,185.8,0c60.4,0,120.8,0,181.1,0c48.4,0,96.8,0,145.2,0     c25.9,0,51.9,0,77.8,0c1.8,0,3.7,0,5.5,0c6.8,0.1,11.2,4.5,11.3,11.2c0.2,10.5,0,20.9,0,31.4c0,54.5,0,109,0,163.4     c0,53,0,106,0,159C961,617.2,961,625.8,961,634.5c0,7.8,6.9,15.4,15,15c8.1-0.4,15-6.6,15-15c0-33.4,0-66.9,0-100.3     c0-61.3,0-122.6,0-183.8c0-23.1,0-46.2,0-69.4c0-11.3,1.2-23.4-0.9-34.6c-3.5-19.4-21.3-32.6-40.5-32.9c-1.8,0-3.7,0-5.5,0     c-9.7,0-19.4,0-29.1,0c-39.2,0-78.4,0-117.6,0c-56.6,0-113.1,0-169.7,0c-63.5,0-127,0-190.4,0c-58.9,0-117.9,0-176.8,0     c-43.9,0-87.9,0-131.8,0c-18.2,0-36.4-0.4-54.6,0c-22.7,0.5-40.6,18.3-41.1,41c-0.1,2.7,0,5.5,0,8.2c0,17.7,0,35.3,0,53     c0,59.7,0,119.5,0,179.2c0,44.6,0,89.1,0,133.7c0,5.2,0,10.2,1.1,15.3c4.2,18.8,21.5,31.3,40.3,31.6c5.9,0.1,11.8,0,17.6,0     c33.4,0,66.8,0,100.2,0c53.4,0,106.7,0,160.1,0c62.5,0,125.1,0,187.6,0c61,0,121.9,0,182.9,0c48.8,0,97.7,0,146.5,0     c25.4,0,50.8,0,76.1,0c1.4,0,2.9,0,4.4,0c22.8-0.5,40.5-18.2,41.1-41c0.2-7.8-7-15.4-15-15C967.7,619.9,961.2,626.1,961,634.5z"/></g></g><g><g><path d="M888,661.5c0,36.2,0,72.5,0,108.7c0,4.3,0.1,8.6,0,12.9c0,0,0.2-1.3,0.2-1.3c-0.1,0.4-0.2,0.8-0.3,1.3     c0.1-0.7,0.4-1.3,0.9-1.7c1.3-1.2-2.6,0.7,0.5-0.4c2.1-0.8,0.1-0.4,0-0.1c0,0,1.8-0.3,1.2-0.2c-0.4,0-0.8,0-1.1,0     c-5.1-0.3-10.3,0-15.4,0c-25.2,0-50.5,0-75.7,0c-39.4,0-78.8,0-118.2,0c-46.9,0-93.8,0-140.7,0c-47.7,0-95.4,0-143.1,0     c-41.8,0-83.6,0-125.4,0c-29.2,0-58.4,0-87.7,0c-7.8,0-15.6,0-23.3,0c-1.8,0-3.7-0.2-5.6,0c-0.3,0-0.7,0-1,0     c-0.8,0,2.7,0.6,0.7,0.1c-1.8-0.5,1.5,1,1.7,1.2c-0.9-0.6-1.1-2,0,0.2c1.6,3.2,0.2,0.2,0.1,0.1c1.4,1.8,0.2,1.9,0.3,1.4     c0.9-14.7,0-29.8,0-44.6c0-21.8,0-43.5,0-65.3c0-4,0-8,0-12c-5,5-10,10-15,15c6.8,0,13.6,0,20.3,0c18.5,0,36.9,0,55.4,0     c27.4,0,54.9,0,82.3,0c33.3,0,66.7,0,100,0c36.5,0,73,0,109.5,0c36.8,0,73.7,0,110.5,0c34.4,0,68.7,0,103.1,0c29,0,58.1,0,87.1,0     c20.9,0,41.8,0,62.7,0c9.9,0,19.9,0.2,29.8,0c0.4,0,0.8,0,1.3,0c7.8,0,15.4-6.9,15-15c-0.4-8.1-6.6-15-15-15     c-6.8,0-13.6,0-20.3,0c-18.5,0-36.9,0-55.4,0c-27.4,0-54.9,0-82.3,0c-33.3,0-66.7,0-100,0c-36.5,0-73,0-109.5,0     c-36.8,0-73.7,0-110.5,0c-34.4,0-68.7,0-103.1,0c-29,0-58.1,0-87.1,0c-20.9,0-41.8,0-62.7,0c-9.9,0-19.9-0.2-29.8,0     c-0.4,0-0.8,0-1.3,0c-8.1,0-15,6.9-15,15c0,36.7,0,73.5,0,110.2c0,5.6-0.4,11.4,0.6,17c2.5,13.1,14.2,21.5,27.1,21.8     c4.6,0.1,9.2,0,13.9,0c24.8,0,49.7,0,74.5,0c39.8,0,79.5,0,119.3,0c47.5,0,95,0,142.5,0c48.5,0,97,0,145.5,0     c42.3,0,84.6,0,126.9,0c29,0,58,0,87,0c7.4,0,14.8,0,22.2,0c1.5,0,3.1,0,4.6,0c15-0.4,26.6-11.1,27.9-26.1     c0.4-4.5,0.1-9.1,0.1-13.6c0-10.1,0-20.2,0-30.3c0-22.2,0-44.5,0-66.7c0-4.1,0-8.2,0-12.3c0-7.8-6.9-15.4-15-15     C894.9,646.9,888,653.1,888,661.5z"/></g></g><g><g><path d="M234.9,727c0,22.8,0,45.7,0,68.5c0,7.8,6.9,15.4,15,15c8.1-0.4,15-6.6,15-15c0-22.8,0-45.7,0-68.5     c0-7.8-6.9-15.4-15-15C241.7,712.4,234.9,718.6,234.9,727L234.9,727z"/></g></g><g><g><path d="M591.4,795.5c0-22.8,0-45.7,0-68.5c0-7.8-6.9-15.4-15-15c-8.1,0.4-15,6.6-15,15c0,22.8,0,45.7,0,68.5     c0,7.8,6.9,15.4,15,15C584.6,810.1,591.4,803.9,591.4,795.5L591.4,795.5z"/></g></g><g><g><path d="M779.1,727c0,22.8,0,45.7,0,68.5c0,7.8,6.9,15.4,15,15c8.1-0.4,15-6.6,15-15c0-22.8,0-45.7,0-68.5     c0-7.8-6.9-15.4-15-15C786,712.4,779.1,718.6,779.1,727L779.1,727z"/></g></g><g><g><path d="M482.6,795.5c0-22.8,0-45.7,0-68.5c0-7.8-6.9-15.4-15-15c-8.1,0.4-15,6.6-15,15c0,22.8,0,45.7,0,68.5     c0,7.8,6.9,15.4,15,15C475.7,810.1,482.6,803.9,482.6,795.5L482.6,795.5z"/></g></g><g><g><path d="M670.3,727c0,22.8,0,45.7,0,68.5c0,7.8,6.9,15.4,15,15c8.1-0.4,15-6.6,15-15c0-22.8,0-45.7,0-68.5     c0-7.8-6.9-15.4-15-15C677.2,712.4,670.3,718.6,670.3,727L670.3,727z"/></g></g><g><g><path d="M373.7,795.5c0-22.8,0-45.7,0-68.5c0-7.8-6.9-15.4-15-15c-8.1,0.4-15,6.6-15,15c0,22.8,0,45.7,0,68.5     c0,7.8,6.9,15.4,15,15C366.8,810.1,373.7,803.9,373.7,795.5L373.7,795.5z"/></g></g></g><text x="0" y="1039" fill="#000000" font-size="5px" font-weight="bold" font-family="'Helvetica Neue', Helvetica, Arial-Unicode, Arial, Sans-serif">Created by shashank singh</text><text x="0" y="1044" fill="#000000" font-size="5px" font-weight="bold" font-family="'Helvetica Neue', Helvetica, Arial-Unicode, Arial, Sans-serif">from the Noun Project</text></svg>