<svg xmlns="http://www.w3.org/2000/svg" xmlns:xlink="http://www.w3.org/1999/xlink" version="1.1" x="0px" y="0px" viewBox="0 0 64 80" style="enable-background:new 0 0 64 64;" xml:space="preserve"><g><path d="M63,26h-2V12c0-1.654-1.346-3-3-3H6c-1.654,0-3,1.346-3,3v5H1v8h2v4H1v8h2v6h1c1.654,0,3,1.346,3,3s-1.346,3-3,3H3v3   c0,1.654,1.346,3,3,3h52c1.654,0,3-1.346,3-3V38h2V26z M3,19h2v4H3V19z M3,31h2v4H3V31z M59,52c0,0.551-0.449,1-1,1H6   c-0.551,0-1-0.449-1-1v-1.101C7.279,50.435,9,48.415,9,46s-1.721-4.435-4-4.899V37h2v-8H5v-4h2v-8H5v-5c0-0.551,0.449-1,1-1h52   c0.551,0,1,0.449,1,1v14h-2v12h2V52z M61,36h-2v-8h2V36z"/><path d="M41,19h-2v-2h-2v2h-2v-2h-2v2h-2v-2h-2v2h-2v2h-2v2h2v2h-2v2h2v2h-2v2h2v2h2v2h2v-2h2v2h2v-2h2v2h2v-2h2v-2h2v-2h-2v-2h2   v-2h-2v-2h2v-2h-2V19z M39,31H29V21h10V31z"/><path d="M21,39h26V13H21V39z M23,15h22v22H23V15z"/><rect x="31" y="23" width="6" height="2"/><rect x="31" y="27" width="6" height="2"/><rect x="53" y="13" width="2" height="38"/><rect x="49" y="13" width="2" height="38"/><rect x="9" y="13" width="4" height="2"/><rect x="15" y="13" width="4" height="2"/><rect x="9" y="17" width="4" height="2"/><rect x="15" y="17" width="4" height="2"/><path d="M13,29c2.206,0,4-1.794,4-4s-1.794-4-4-4s-4,1.794-4,4S10.794,29,13,29z M13,23c1.103,0,2,0.897,2,2s-0.897,2-2,2   s-2-0.897-2-2S11.897,23,13,23z"/><path d="M19,31H9v8h10V31z M17,37h-6v-4h6V37z"/><path d="M17,51h30V41H17V51z M19,47h2v2h-2V47z M31,47h2v2h-2V47z M29,49h-2v-2h2V49z M35,47h2v2h-2V47z M39,47h2v2h-2V47z M39,45   v-2h2v2H39z M37,45h-2v-2h2V45z M33,45h-2v-2h2V45z M29,45h-2v-2h2V45z M25,45h-2v-2h2V45z M25,47v2h-2v-2H25z M43,49v-2h2v2H43z    M45,45h-2v-2h2V45z M21,43v2h-2v-2H21z"/><rect x="11" y="41" width="4" height="2"/><rect x="11" y="45" width="4" height="2"/><rect x="11" y="49" width="4" height="2"/></g><text x="0" y="79" fill="#000000" font-size="5px" font-weight="bold" font-family="'Helvetica Neue', Helvetica, Arial-Unicode, Arial, Sans-serif">Created by Eucalyp</text><text x="0" y="84" fill="#000000" font-size="5px" font-weight="bold" font-family="'Helvetica Neue', Helvetica, Arial-Unicode, Arial, Sans-serif">from the Noun Project</text></svg>