<?xml version="1.0" encoding="utf-8"?>
<!-- Generator: Adobe Illustrator 24.3.0, SVG Export Plug-In . SVG Version: 6.00 Build 0)  -->
<svg version="1.1" id="Layer_1" xmlns="http://www.w3.org/2000/svg" xmlns:xlink="http://www.w3.org/1999/xlink" x="0px" y="0px"
	 viewBox="0 0 10 10" style="enable-background:new 0 0 10 10;" xml:space="preserve">
<style type="text/css">
	.st0{fill:#FFFFFF;}
</style>
<path class="st0" d="M9,1.4H1c-0.6,0-1,0.5-1,1l0,0v5.1c0,0.6,0.5,1,1,1l0,0H9c0.6,0,1-0.5,1-1l0,0V2.5C10,1.9,9.6,1.5,9,1.4L9,1.4z
	 M9.6,7.6c0,0.3-0.3,0.6-0.6,0.6l0,0H1c-0.3,0-0.6-0.3-0.6-0.6l0,0V2.5c0-0.3,0.3-0.6,0.6-0.6l0,0H9c0.3,0,0.6,0.3,0.6,0.6l0,0
	L9.6,7.6L9.6,7.6z M3.8,2.6V2.2H3.3v0.4C2.1,2.7,1.2,3.6,1.1,4.8H0.7v0.4h0.4c0.1,1.2,1.1,2.1,2.3,2.3v0.4h0.4V7.5
	C5,7.4,5.9,6.5,6,5.3h0.4V4.8H6C5.9,3.6,5,2.7,3.8,2.6z M5.6,4.8H4.9c-0.1-0.6-0.6-1-1.2-1.2V3C4.7,3.1,5.5,3.9,5.6,4.8z M3.3,4.8
	H2.6C2.7,4.5,3,4.2,3.3,4.1V4.8z M3.3,5.3v0.7C3,5.9,2.7,5.6,2.6,5.3H3.3z M3.8,5.3h0.7C4.4,5.6,4.1,5.9,3.8,5.9V5.3z M3.8,4.8V4.1
	c0.3,0.1,0.6,0.3,0.7,0.7H3.8z M3.3,3v0.7c-0.6,0.1-1,0.6-1.2,1.2H1.5C1.6,3.9,2.3,3.1,3.3,3z M1.5,5.3h0.7c0.1,0.6,0.6,1,1.2,1.2
	v0.7C2.3,7,1.6,6.2,1.5,5.3z M3.7,7.1V6.4c0.6-0.1,1-0.6,1.2-1.2h0.7C5.5,6.2,4.7,7,3.7,7.1z M8.6,5H7.3C7,5,6.7,5.3,6.7,5.7v1.1
	c0,0.3,0.3,0.6,0.6,0.6h1.3c0.3,0,0.6-0.3,0.6-0.6c0,0,0,0,0,0V5.7C9.3,5.3,9,5,8.6,5L8.6,5z M8.8,6.8C8.8,6.9,8.8,7,8.6,7H7.3
	C7.2,7,7.1,6.9,7.1,6.8V5.7c0-0.1,0.1-0.2,0.2-0.2h1.3c0.1,0,0.2,0.1,0.2,0.2V6.8z M7.3,5.8h0.4v0.8H7.3V5.8z M8.1,5.8h0.4v0.8H8.1
	V5.8z M8.5,3.3v-1H7.3v2h1.2V3.3z M7.8,2.8h0.3v0.1H7.8V2.8z M7.8,4V3.3h0.3v0.6L7.8,4z"/>
</svg>
