<?xml version="1.0" encoding="utf-8"?>
<!-- Generator: Adobe Illustrator 24.3.0, SVG Export Plug-In . SVG Version: 6.00 Build 0)  -->
<svg version="1.1" id="Layer_1" xmlns="http://www.w3.org/2000/svg" xmlns:xlink="http://www.w3.org/1999/xlink" x="0px" y="0px"
	 viewBox="0 0 10 10" style="enable-background:new 0 0 10 10;" xml:space="preserve">
<style type="text/css">
	.st0{fill:#FFFFFF;}
</style>
<g>
	<g>
		<g>
			<g>
				<path class="st0" d="M2.8,4.9c-0.4,0-0.8,0-1.1,0c0,0-0.1,0-0.1,0h0h0c0,0,0,0,0,0c0,0,0,0,0,0c0,0,0,0,0,0l0,0c0,0,0,0,0,0
					c0,0,0,0,0,0c0,0,0,0,0,0c0,0,0,0,0,0l0,0c0,0,0,0,0,0c0,0,0-0.1,0-0.1c0-0.2,0-0.5,0-0.7c0-0.1,0-0.2,0-0.3c0,0,0-0.1,0-0.1
					c0,0,0,0,0,0l0,0v0c0,0,0,0,0,0c0,0,0,0,0,0l0,0c0,0,0,0,0,0l0,0c0,0,0,0,0,0c0,0,0,0,0,0c0,0,0,0,0,0c0,0,0,0,0,0h0
					c0,0,0.1,0,0.1,0c0.1,0,0.2,0,0.3,0c0.2,0,0.5,0,0.7,0c0.1,0,0.1,0,0.1,0s0,0,0,0s0,0,0,0s0,0,0,0c0,0,0,0,0,0c0,0,0,0,0,0l0,0
					c0,0,0,0,0,0l0,0c0,0,0,0,0,0c0,0,0,0,0,0l0,0c0,0,0,0,0,0.1C2.8,4.2,2.8,4.5,2.8,4.9L2.8,4.9C2.8,4.9,2.8,4.9,2.8,4.9
					C2.8,4.9,2.8,4.9,2.8,4.9C2.8,4.9,2.8,4.9,2.8,4.9C2.8,4.9,2.8,4.9,2.8,4.9C2.8,4.9,2.8,4.9,2.8,4.9C2.8,4.9,2.8,4.9,2.8,4.9
					C2.8,4.9,2.8,4.9,2.8,4.9C2.8,4.9,2.8,4.9,2.8,4.9C2.8,4.9,2.8,4.9,2.8,4.9C2.8,4.9,2.8,4.9,2.8,4.9C2.8,4.9,2.8,4.9,2.8,4.9
					C2.7,4.9,2.6,5,2.6,5.1c0,0.1,0.1,0.2,0.2,0.2c0.2,0,0.3-0.2,0.3-0.3c0-0.1,0-0.2,0-0.2c0-0.3,0-0.5,0-0.8c0-0.1,0-0.1,0-0.2
					c0-0.2-0.1-0.3-0.3-0.3c-0.2,0-0.4,0-0.6,0c-0.2,0-0.4,0-0.6,0c-0.2,0-0.3,0.1-0.3,0.3c0,0.1,0,0.1,0,0.2c0,0.3,0,0.5,0,0.8
					c0,0.1,0,0.2,0,0.2c0,0.2,0.1,0.3,0.3,0.3c0.2,0,0.3,0,0.5,0c0.2,0,0.4,0,0.7,0c0,0,0,0,0,0C2.9,5.2,3,5.2,3,5.1
					C2.9,5,2.9,4.9,2.8,4.9z"/>
			</g>
		</g>
		<g>
			<g>
				<path class="st0" d="M5.6,4.9c-0.4,0-0.8,0-1.1,0c0,0-0.1,0-0.1,0h0h0c0,0,0,0,0,0c0,0,0,0,0,0c0,0,0,0,0,0l0,0c0,0,0,0,0,0
					c0,0,0,0,0,0c0,0,0,0,0,0c0,0,0,0,0,0l0,0c0,0,0,0,0,0c0,0,0-0.1,0-0.1c0-0.2,0-0.5,0-0.7c0-0.1,0-0.2,0-0.3c0,0,0-0.1,0-0.1
					c0,0,0,0,0,0l0,0v0c0,0,0,0,0,0c0,0,0,0,0,0c0,0,0,0,0,0c0,0,0,0,0,0l0,0c0,0,0,0,0,0c0,0,0,0,0,0c0,0,0,0,0,0c0,0,0,0,0,0h0
					c0,0,0.1,0,0.1,0c0.1,0,0.2,0,0.3,0c0.2,0,0.5,0,0.7,0c0.1,0,0.1,0,0.1,0c0,0,0,0,0,0s0,0,0,0c0,0,0,0,0,0c0,0,0,0,0,0
					c0,0,0,0,0,0l0,0l0,0c0,0,0,0,0,0c0,0,0,0,0,0c0,0,0,0,0,0l0,0c0,0,0,0,0,0.1C5.6,4.2,5.6,4.5,5.6,4.9L5.6,4.9
					C5.6,4.9,5.6,4.9,5.6,4.9C5.6,4.9,5.6,4.9,5.6,4.9C5.6,4.9,5.6,4.9,5.6,4.9C5.6,4.9,5.6,4.9,5.6,4.9C5.6,4.9,5.6,4.9,5.6,4.9
					L5.6,4.9C5.6,4.9,5.6,4.9,5.6,4.9C5.6,4.9,5.6,4.9,5.6,4.9C5.6,4.9,5.6,4.9,5.6,4.9C5.6,4.9,5.6,4.9,5.6,4.9
					C5.6,4.9,5.6,4.9,5.6,4.9C5.5,4.9,5.4,5,5.4,5.1c0,0.1,0.1,0.2,0.2,0.2c0.2,0,0.3-0.2,0.3-0.3c0-0.1,0-0.2,0-0.2
					c0-0.3,0-0.5,0-0.8c0-0.1,0-0.1,0-0.2c0-0.2-0.1-0.3-0.3-0.3c-0.2,0-0.4,0-0.6,0c-0.2,0-0.4,0-0.6,0c-0.2,0-0.3,0.1-0.3,0.3
					c0,0.1,0,0.1,0,0.2c0,0.3,0,0.5,0,0.8c0,0.1,0,0.2,0,0.2c0,0.2,0.1,0.3,0.3,0.3c0.2,0,0.3,0,0.5,0c0.2,0,0.4,0,0.7,0
					c0,0,0,0,0,0c0.1,0,0.2-0.1,0.2-0.2C5.8,5,5.7,4.9,5.6,4.9z"/>
			</g>
		</g>
		<g>
			<g>
				<path class="st0" d="M8.4,4.9c-0.4,0-0.8,0-1.1,0c0,0-0.1,0-0.1,0h0h0c0,0,0,0,0,0c0,0,0,0,0,0c0,0,0,0,0,0l0,0c0,0,0,0,0,0
					c0,0,0,0,0,0c0,0,0,0,0,0c0,0,0,0,0,0l0,0c0,0,0,0,0,0c0,0,0-0.1,0-0.1c0-0.2,0-0.5,0-0.7c0-0.1,0-0.2,0-0.3c0,0,0-0.1,0-0.1
					c0,0,0,0,0,0l0,0v0c0,0,0,0,0,0c0,0,0,0,0,0c0,0,0,0,0,0c0,0,0,0,0,0l0,0c0,0,0,0,0,0c0,0,0,0,0,0c0,0,0,0,0,0c0,0,0,0,0,0h0
					c0,0,0.1,0,0.1,0c0.1,0,0.2,0,0.3,0c0.2,0,0.5,0,0.7,0c0.1,0,0.1,0,0.1,0c0,0,0,0,0,0s0,0,0,0s0,0,0,0c0,0,0,0,0,0c0,0,0,0,0,0
					l0,0c0,0,0,0,0,0c0,0,0,0,0,0c0,0,0,0,0,0c0,0,0,0,0,0l0,0c0,0,0,0,0,0.1C8.5,4.2,8.5,4.5,8.4,4.9L8.4,4.9
					C8.5,4.9,8.5,4.9,8.4,4.9C8.5,4.9,8.5,4.9,8.4,4.9C8.5,4.9,8.5,4.9,8.4,4.9C8.5,4.9,8.5,4.9,8.4,4.9C8.5,4.9,8.5,4.9,8.4,4.9
					C8.5,4.9,8.5,4.9,8.4,4.9C8.5,4.9,8.5,4.9,8.4,4.9C8.4,4.9,8.4,4.9,8.4,4.9C8.4,4.9,8.4,4.9,8.4,4.9C8.4,4.9,8.4,4.9,8.4,4.9
					C8.4,4.9,8.4,4.9,8.4,4.9C8.3,4.9,8.3,5,8.3,5.1c0,0.1,0.1,0.2,0.2,0.2c0.2,0,0.3-0.2,0.3-0.3c0-0.1,0-0.2,0-0.2
					c0-0.3,0-0.5,0-0.8c0-0.1,0-0.1,0-0.2c0-0.2-0.1-0.3-0.3-0.3c-0.2,0-0.4,0-0.6,0c-0.2,0-0.4,0-0.6,0C7,3.4,6.9,3.5,6.9,3.7
					c0,0.1,0,0.1,0,0.2c0,0.3,0,0.5,0,0.8c0,0.1,0,0.2,0,0.2c0,0.2,0.1,0.3,0.3,0.3c0.2,0,0.3,0,0.5,0c0.2,0,0.4,0,0.7,0
					c0,0,0,0,0,0c0.1,0,0.2-0.1,0.2-0.2C8.6,5,8.5,4.9,8.4,4.9z"/>
			</g>
		</g>
		<g>
			<g>
				<path class="st0" d="M9.7,6.3C9.7,6.3,9.7,6.3,9.7,6.3C9.7,6.3,9.7,6.3,9.7,6.3C9.7,6.3,9.7,6.3,9.7,6.3
					C9.6,6.4,9.7,6.3,9.7,6.3C9.7,6.3,9.6,6.4,9.7,6.3C9.6,6.4,9.6,6.4,9.7,6.3c-0.1,0.1,0,0.1-0.1,0.1c0,0,0,0,0,0c0,0,0,0,0,0
					c0,0,0,0,0,0c0,0,0,0-0.1,0c-0.1,0-0.2,0-0.3,0c-0.4,0-0.8,0-1.2,0c-0.6,0-1.2,0-1.8,0c-0.6,0-1.3,0-2,0c-0.6,0-1.2,0-1.8,0
					c-0.5,0-0.9,0-1.4,0c-0.2,0-0.4,0-0.6,0l0,0l0,0c0,0-0.1,0,0,0c0,0-0.1,0,0,0c0,0,0,0,0,0c0,0,0,0,0,0s0,0,0,0c0,0,0,0,0,0
					c0,0,0,0,0,0c0,0,0,0,0,0v0c0,0,0-0.1,0-0.1c0-0.2,0-0.4,0-0.6c0-0.6,0-1.2,0-1.9c0-0.5,0-0.9,0-1.4c0,0,0-0.1,0-0.1
					c0,0,0,0,0,0c0,0,0,0,0,0c0,0,0,0,0,0c0,0,0,0,0,0c0,0,0,0,0,0c0,0,0,0,0,0c0,0,0,0,0,0c0,0,0,0,0,0h0c0.1,0,0.1,0,0.2,0
					c0.4,0,0.7,0,1.1,0c0.6,0,1.1,0,1.7,0c0.6,0,1.3,0,1.9,0c0.6,0,1.3,0,1.9,0c0.5,0,1,0,1.5,0c0.3,0,0.5,0,0.8,0c0,0,0,0,0.1,0
					c0.1,0,0.1,0,0.1,0.1c0,0.1,0,0.2,0,0.3c0,0.6,0,1.1,0,1.7c0,0.6,0,1.1,0,1.7C9.7,6.1,9.7,6.2,9.7,6.3c0,0.1,0.1,0.2,0.2,0.2
					c0.1,0,0.2-0.1,0.2-0.2c0-0.3,0-0.7,0-1c0-0.6,0-1.3,0-1.9c0-0.2,0-0.5,0-0.7c0-0.1,0-0.2,0-0.4C10,2,9.8,1.9,9.6,1.9
					c0,0,0,0-0.1,0c-0.1,0-0.2,0-0.3,0c-0.4,0-0.8,0-1.2,0c-0.6,0-1.2,0-1.8,0c-0.7,0-1.3,0-2,0c-0.6,0-1.2,0-1.8,0
					c-0.5,0-0.9,0-1.4,0c-0.2,0-0.4,0-0.6,0C0.2,1.9,0,2.1,0,2.3c0,0,0,0.1,0,0.1c0,0.2,0,0.4,0,0.6c0,0.6,0,1.3,0,1.9
					c0,0.5,0,0.9,0,1.4c0,0.1,0,0.1,0,0.2c0,0.2,0.2,0.3,0.4,0.3c0.1,0,0.1,0,0.2,0c0.3,0,0.7,0,1,0c0.6,0,1.1,0,1.7,0
					c0.6,0,1.3,0,2,0c0.6,0,1.3,0,1.9,0c0.5,0,1,0,1.5,0c0.3,0,0.5,0,0.8,0c0,0,0,0,0,0c0.2,0,0.4-0.2,0.4-0.4
					c0-0.1-0.1-0.2-0.2-0.2C9.8,6.1,9.7,6.2,9.7,6.3z"/>
			</g>
		</g>
		<g>
			<g>
				<path class="st0" d="M8.9,6.6c0,0.4,0,0.8,0,1.1c0,0,0,0.1,0,0.1v0v0c0,0,0,0,0,0c0,0,0,0,0,0c0,0,0,0,0,0s0,0,0,0h0
					c-0.1,0-0.1,0-0.2,0c-0.3,0-0.5,0-0.8,0c-0.4,0-0.8,0-1.2,0c-0.5,0-1,0-1.5,0c-0.5,0-1,0-1.5,0c-0.4,0-0.9,0-1.3,0
					c-0.3,0-0.6,0-0.9,0c-0.1,0-0.2,0-0.2,0c0,0,0,0-0.1,0h0c0,0,0,0,0,0c0,0,0,0,0,0c0,0,0,0,0,0c0,0,0,0,0,0c0,0,0,0,0,0
					c0-0.2,0-0.3,0-0.5c0-0.2,0-0.4,0-0.7c0,0,0-0.1,0-0.1C1.2,6.6,1.2,6.7,1.1,6.7c0.1,0,0.1,0,0.2,0c0.2,0,0.4,0,0.6,0
					c0.3,0,0.6,0,0.9,0c0.3,0,0.7,0,1,0c0.4,0,0.8,0,1.1,0c0.4,0,0.8,0,1.2,0c0.4,0,0.7,0,1.1,0c0.3,0,0.6,0,0.9,0
					c0.2,0,0.4,0,0.7,0c0.1,0,0.2,0,0.3,0h0c0.1,0,0.2-0.1,0.2-0.2S9.2,6.4,9.1,6.4c-0.1,0-0.1,0-0.2,0c-0.2,0-0.4,0-0.6,0
					c-0.3,0-0.6,0-0.9,0c-0.3,0-0.7,0-1,0c-0.4,0-0.8,0-1.1,0s-0.8,0-1.1,0c-0.4,0-0.7,0-1.1,0c-0.3,0-0.6,0-0.9,0
					c-0.2,0-0.4,0-0.7,0c-0.1,0-0.2,0-0.3,0h0C1.1,6.4,1,6.5,1,6.6c0,0.4,0,0.8,0,1.1c0,0.1,0,0.1,0,0.2C1,8,1.1,8.1,1.3,8.1
					c0.1,0,0.1,0,0.1,0c0.3,0,0.5,0,0.8,0c0.4,0,0.8,0,1.2,0c0.5,0,1,0,1.5,0c0.5,0,1,0,1.5,0c0.4,0,0.9,0,1.3,0c0.3,0,0.6,0,0.9,0
					c0.1,0,0.2,0,0.2,0c0,0,0,0,0.1,0c0.2,0,0.3-0.1,0.3-0.3c0-0.1,0-0.1,0-0.1c0-0.1,0-0.2,0-0.3c0-0.2,0-0.5,0-0.7
					c0,0,0-0.1,0-0.1c0-0.1-0.1-0.2-0.2-0.2C9,6.4,8.9,6.5,8.9,6.6z"/>
			</g>
		</g>
		<g>
			<g>
				<path class="st0" d="M2.1,7.2c0,0.2,0,0.5,0,0.7c0,0.1,0.1,0.2,0.2,0.2S2.4,8,2.4,8c0-0.2,0-0.5,0-0.7c0-0.1-0.1-0.2-0.2-0.2
					S2.1,7.1,2.1,7.2L2.1,7.2z"/>
			</g>
		</g>
		<g>
			<g>
				<path class="st0" d="M5.8,8c0-0.2,0-0.5,0-0.7c0-0.1-0.1-0.2-0.2-0.2S5.5,7.1,5.5,7.2c0,0.2,0,0.5,0,0.7c0,0.1,0.1,0.2,0.2,0.2
					C5.8,8.1,5.8,8,5.8,8L5.8,8z"/>
			</g>
		</g>
		<g>
			<g>
				<path class="st0" d="M7.8,7.2c0,0.2,0,0.5,0,0.7c0,0.1,0.1,0.2,0.2,0.2C8,8.1,8.1,8,8.1,8c0-0.2,0-0.5,0-0.7
					c0-0.1-0.1-0.2-0.2-0.2C7.9,7.1,7.8,7.1,7.8,7.2L7.8,7.2z"/>
			</g>
		</g>
		<g>
			<g>
				<path class="st0" d="M4.7,8c0-0.2,0-0.5,0-0.7c0-0.1-0.1-0.2-0.2-0.2S4.4,7.1,4.4,7.2c0,0.2,0,0.5,0,0.7c0,0.1,0.1,0.2,0.2,0.2
					S4.7,8,4.7,8L4.7,8z"/>
			</g>
		</g>
		<g>
			<g>
				<path class="st0" d="M6.7,7.2c0,0.2,0,0.5,0,0.7c0,0.1,0.1,0.2,0.2,0.2S7,8,7,8c0-0.2,0-0.5,0-0.7c0-0.1-0.1-0.2-0.2-0.2
					S6.7,7.1,6.7,7.2L6.7,7.2z"/>
			</g>
		</g>
		<g>
			<g>
				<path class="st0" d="M3.6,8c0-0.2,0-0.5,0-0.7c0-0.1-0.1-0.2-0.2-0.2c-0.1,0-0.2,0.1-0.2,0.2c0,0.2,0,0.5,0,0.7
					c0,0.1,0.1,0.2,0.2,0.2C3.5,8.1,3.6,8,3.6,8L3.6,8z"/>
			</g>
		</g>
	</g>
</g>
</svg>
