<?xml version="1.0" encoding="utf-8"?>
<!-- Generator: Adobe Illustrator 24.3.0, SVG Export Plug-In . SVG Version: 6.00 Build 0)  -->
<svg version="1.1" id="Layer_1" xmlns="http://www.w3.org/2000/svg" xmlns:xlink="http://www.w3.org/1999/xlink" x="0px" y="0px"
	 viewBox="0 0 10 10" style="enable-background:new 0 0 10 10;" xml:space="preserve">
<style type="text/css">
	.st0{fill:#FFFFFF;}
</style>
<g>
	<circle class="st0" cx="2.2" cy="1" r="0.2"/>
	<circle class="st0" cx="2.2" cy="8.1" r="0.2"/>
	<circle class="st0" cx="7.8" cy="1" r="0.2"/>
	<circle class="st0" cx="7.8" cy="8.1" r="0.2"/>
	<path class="st0" d="M2.1,10h5.9c0.3,0,0.6-0.3,0.6-0.6V0.6C8.5,0.3,8.3,0,7.9,0H2.1C1.7,0,1.5,0.3,1.5,0.6v8.8
		C1.5,9.7,1.7,10,2.1,10z M7.1,9.7H6.8V9.2c0-0.1-0.1-0.2-0.2-0.2S6.5,9.1,6.5,9.2v0.4H6.2V9.2c0-0.1-0.1-0.2-0.2-0.2
		S5.9,9.1,5.9,9.2v0.4H5.7V9.2c0-0.1-0.1-0.2-0.2-0.2S5.4,9.1,5.4,9.2v0.4H5.1V9.2c0-0.1-0.1-0.2-0.2-0.2S4.8,9.1,4.8,9.2v0.4H4.5
		V9.2c0-0.1-0.1-0.2-0.2-0.2S4.2,9.1,4.2,9.2v0.4H4V9.2c0-0.1-0.1-0.2-0.2-0.2S3.6,9.1,3.6,9.2v0.4H3.4V8.9h3.7V9.7z M1.8,0.6
		c0-0.1,0.1-0.3,0.3-0.3h5.9c0.1,0,0.3,0.1,0.3,0.3v8.8c0,0.1-0.1,0.3-0.3,0.3H7.4V8.8c0-0.1-0.1-0.2-0.2-0.2H3.2
		C3.1,8.6,3,8.7,3,8.8v0.9h-1c-0.1,0-0.3-0.1-0.3-0.3V0.6z"/>
	<path class="st0" d="M2.8,7.7h4.4c0.1,0,0.3-0.1,0.3-0.3V1.6c0-0.1-0.1-0.3-0.3-0.3H2.8c-0.1,0-0.3,0.1-0.3,0.3v5.9
		C2.6,7.6,2.7,7.7,2.8,7.7z M2.9,1.6h4.3v5.8H2.9V1.6z"/>
</g>
</svg>
