<?xml version="1.0" encoding="utf-8"?>
<!-- Generator: Adobe Illustrator 24.3.0, SVG Export Plug-In . SVG Version: 6.00 Build 0)  -->
<svg version="1.1" id="Layer_1" xmlns="http://www.w3.org/2000/svg" xmlns:xlink="http://www.w3.org/1999/xlink" x="0px" y="0px"
	 viewBox="0 0 7.4 8.5" style="enable-background:new 0 0 7.4 8.5;" xml:space="preserve">
<style type="text/css">
	.st0{fill:#FFFFFF;}
</style>
<path class="st0" d="M2.9,0C2.8,0,2.7,0.1,2.7,0.3v0.5c0,0,0,0.3-0.1,0.5S2.5,1.5,2.4,1.7c0,0.1-0.1,0.3-0.1,0.4
	C2.2,2.3,2.1,2.4,2,2.6S1.9,2.9,1.8,3.1C1.7,3.2,1.7,3.4,1.6,3.5c0-0.1,0-0.1-0.1-0.2V3.1c0-0.1,0-0.1-0.1-0.2V2.7V2.5
	c0-0.1-0.1-0.3-0.3-0.2C1,2.3,0.9,2.4,0.9,2.4L0.8,2.5c0,0.1-0.1,0.2-0.1,0.3c-0.1,0-0.2,0.1-0.2,0.3C0.4,3.2,0.3,3.4,0.3,3.6
	C0.2,3.8,0.2,4,0.1,4.3S0,4.7,0,5c0,0.2,0,0.5,0.1,0.7c0,0.3,0.1,0.5,0.2,0.7c0.1,0.3,0.2,0.5,0.4,0.7S1,7.4,1.1,7.6
	s0.3,0.2,0.4,0.3C1.7,8,1.8,8.1,1.9,8.2s0.3,0.1,0.4,0.2c0.1,0,0.2,0.1,0.3,0.1h0.2h0.1c0.1,0,0.3-0.1,0.3-0.3c0-0.1,0-0.1-0.1-0.2
	L2.9,7.8c0-0.1-0.1-0.1-0.1-0.2S2.7,7.5,2.7,7.4S2.5,7.2,2.5,7.1S2.4,6.9,2.4,6.8S2.3,6.6,2.3,6.5V6.2V5.9V5.7c0-0.1,0-0.1,0.1-0.2
	l0.1,0.1v0.2l0.3,0.3C2.9,6.2,3,6.3,3.2,6.2c0,0,0.1,0,0.1-0.1l0.2-0.2c0,0,0.1-0.1,0.1-0.2c-0.1,0.1-0.1,0-0.1,0
	c0-0.1,0.1-0.1,0.1-0.2s0.1-0.2,0.1-0.2c0-0.1,0.1-0.2,0.1-0.3s0.1-0.2,0.1-0.3V4.4c0,0,0-0.2,0-0.3V3.9C4.1,4,4.2,4,4.3,4.1
	l0.2,0.2c0.1,0.1,0.1,0.2,0.2,0.2c0.1,0.1,0.1,0.2,0.2,0.3C4.9,4.9,5,5,5,5.1s0,0.2,0.1,0.3v0.4v0.4C5.1,6.3,5,6.5,5,6.6
	S4.9,6.9,4.9,7S4.8,7.2,4.8,7.4c0,0.1-0.1,0.2-0.1,0.3S4.4,7.8,4.4,7.9L4.3,8v0.1c-0.1,0.1,0,0.3,0.1,0.4h0.2c0.3,0,0.5-0.1,0.8-0.1
	S5.8,8.3,6,8.2s0.3-0.3,0.5-0.4s0.3-0.3,0.4-0.4s0.2-0.3,0.3-0.5s0.1-0.3,0.2-0.5s0-0.4,0-0.5s0-0.4,0-0.6V4.7
	c0-0.2-0.1-0.4-0.1-0.6C7.2,3.9,7.2,3.7,7.1,3.6C7,3.4,7,3.2,6.9,3.1S6.8,2.8,6.7,2.6C6.6,2.5,6.6,2.4,6.5,2.3S6.4,2.1,6.4,2.1
	C6.4,2,6.3,2,6.3,2c0-0.1-0.2-0.2-0.3-0.1C5.9,1.9,5.9,2,5.9,2v0.1v0.1v0.1c0,0,0,0.1-0.1,0.1V2.3c-0.2,0.1-0.3,0-0.3-0.1
	S5.4,2,5.3,1.9c0-0.1-0.1-0.2-0.1-0.3C5.1,1.5,5,1.4,5,1.3L4.7,1c0,0-0.2-0.2-0.3-0.3S4.2,0.6,4.1,0.5S3.8,0.4,3.7,0.3
	S3.6,0.2,3.5,0.2S3.3,0.1,3.3,0.1C3.2,0.1,3.1,0,3.1,0L2.9,0C3,0,2.9,0,2.9,0z M3.2,0.7c0.1,0,0.2,0.1,0.3,0.1S3.7,0.9,3.8,1
	C3.9,1,4,1.1,4.1,1.2s0.2,0.1,0.3,0.2c0,0,0.1,0.1,0.1,0.2c0.1,0.1,0.1,0.2,0.2,0.3s0.1,0.2,0.2,0.3S5,2.4,5,2.5s0.1,0.2,0.1,0.3
	S5.2,3,5.2,3c0,0.1,0,0.1,0.1,0.2v0.1c0,0.1,0.2,0.2,0.3,0.2c0,0,0.1,0,0.1-0.1l0.1-0.1c0,0,0.1-0.1,0.1-0.2C6,3.1,6.1,3,6.1,3
	c0-0.1,0.1-0.1,0.1-0.2v0.1C6.3,3,6.4,3.1,6.4,3.3c0.1,0.1,0.2,0.3,0.2,0.4S6.7,4,6.8,4.2c0,0.2,0.1,0.3,0.1,0.5s0,0.3,0,0.5v0.5
	c0,0.2,0,0.3-0.1,0.5c0,0.1-0.1,0.3-0.1,0.4S6.5,6.9,6.4,7S6.2,7.3,6.1,7.4S5.9,7.5,5.7,7.6S5.4,7.8,5.2,7.8H5
	c0-0.1,0.1-0.2,0.1-0.3s0.1-0.2,0.1-0.4c0-0.1,0.1-0.3,0.1-0.4s0.2-0.3,0.2-0.4V5.9V5.5c0,0,0-0.4,0-0.5S5.4,4.7,5.4,4.6L5.1,4.3
	C5.1,4.2,5,4.1,4.9,4L4.6,3.7c0,0-0.2-0.2-0.4-0.3C4.1,3.3,4,3.3,3.9,3.2c-0.2-0.1-0.3,0-0.4,0.1v0.1v0.1v0.1v0.2v0.3v0.2v0.2
	c0,0.1,0,0.2-0.1,0.2c0,0.1-0.1,0.1-0.1,0.2S3.2,5,3.2,5.1S3.1,5.2,3.1,5.3S3,5.4,3,5.5L2.8,5.3V5.1L2.7,5V4.8
	C2.6,4.7,2.4,4.6,2.3,4.7H2.2c0,0,0,0.1-0.1,0.1C2.1,4.8,2,4.9,2,5S1.9,5.1,1.9,5.2S1.8,5.4,1.8,5.5s0,0.2-0.1,0.3v0.4
	c0,0.1,0,0.3,0.1,0.4c0,0.1,0.1,0.3,0.1,0.4S2,7.2,2,7.4s0.1,0.2,0.2,0.3c0,0,0,0.1,0.1,0.1H2.2C2.1,7.7,1.9,7.6,1.8,7.5L1.5,7.2
	C1.3,7.1,1.2,7,1.1,6.8S0.9,6.5,0.8,6.2C0.7,6,0.6,5.8,0.6,5.6s0-0.4,0-0.6s0-0.4,0.1-0.6s0-0.4,0.1-0.6S0.9,3.4,1,3.3
	c0,0.1,0,0.1,0.1,0.2c0,0.1,0.1,0.2,0.1,0.2c0,0.1,0.1,0.2,0.1,0.2l0.1,0.2c0,0,0.1,0.1,0.1,0.2c0.1,0.1,0.2,0.2,0.3,0.1
	c0.1,0,0.1-0.1,0.1-0.2S2,4,2.1,3.8s0.1-0.3,0.2-0.5S2.4,3,2.5,2.8s0.1-0.3,0.2-0.5S2.9,2,2.9,1.9S3,1.6,3.1,1.4
	c0-0.2,0.1-0.4,0.1-0.5C3.2,0.9,3.2,0.7,3.2,0.7z"/>
</svg>
