<?xml version="1.0" encoding="utf-8"?>
<!-- Generator: Adobe Illustrator 24.3.0, SVG Export Plug-In . SVG Version: 6.00 Build 0)  -->
<svg version="1.1" id="Layer_1" xmlns="http://www.w3.org/2000/svg" xmlns:xlink="http://www.w3.org/1999/xlink" x="0px" y="0px"
	 viewBox="0 0 10 10" style="enable-background:new 0 0 10 10;" xml:space="preserve">
<style type="text/css">
	.st0{fill:none;stroke:#FFFFFF;stroke-linecap:round;stroke-linejoin:round;stroke-miterlimit:10;}
</style>
<g>
	<path class="st0" d="M8.5,6.2C8.4,6.6,8.9,7.4,8.6,7.8C8.4,8.1,7.5,7.9,7.2,8.1C6.8,8.4,6.8,9.3,6.4,9.5C6,9.6,5.4,8.9,5,8.9
		c-0.4,0-1,0.8-1.4,0.6C3.2,9.3,3.2,8.4,2.9,8.1c-0.3-0.3-1.2,0-1.5-0.4C1.1,7.4,1.7,6.6,1.5,6.2c-0.1-0.4-1-0.7-1-1.2
		s0.9-0.8,1-1.2c0.1-0.4-0.4-1.2-0.1-1.6c0.2-0.4,1.1-0.1,1.5-0.4c0.3-0.3,0.4-1.2,0.8-1.4C4,0.4,4.6,1.1,5,1.1c0.4,0,1-0.8,1.4-0.6
		c0.4,0.1,0.4,1.1,0.8,1.4c0.3,0.3,1.2,0,1.5,0.4c0.2,0.4-0.3,1.1-0.1,1.6c0.1,0.4,1,0.7,1,1.2S8.6,5.8,8.5,6.2z"/>
</g>
</svg>
