<svg xmlns="http://www.w3.org/2000/svg" xmlns:xlink="http://www.w3.org/1999/xlink" version="1.1" x="0px" y="0px" viewBox="0 0 100 125" enable-background="new 0 0 100 100" xml:space="preserve"><g><path fill="#000000" d="M61.8,85.1H38.7c-0.6,0-1-0.4-1-1V48.4c0-0.6,0.4-1,1-1h23.1c0.6,0,1,0.4,1,1v35.8   C62.8,84.7,62.3,85.1,61.8,85.1z M39.7,83.1h21.1V49.4H39.7V83.1z"/><path fill="#000000" d="M90,85.1H66.9c-0.6,0-1-0.4-1-1V69.9c0-0.6,0.4-1,1-1H90c0.6,0,1,0.4,1,1v14.2C91,84.7,90.5,85.1,90,85.1z    M67.9,83.1H89V70.9H67.9V83.1z"/><path fill="#000000" d="M33,85.1H9.9c-0.6,0-1-0.4-1-1v-25c0-0.6,0.4-1,1-1H33c0.6,0,1,0.4,1,1v25C34,84.7,33.5,85.1,33,85.1z    M10.9,83.1H32v-23H10.9V83.1z"/><path fill="#000000" d="M50.2,16.3l3.1,8.8l9.3,0.2l-7.4,5.6l2.7,8.9l-7.6-5.3l-7.6,5.3l2.7-8.9l-7.4-5.6l9.3-0.2L50.2,16.3    M50.2,14.3c-0.8,0-1.6,0.5-1.9,1.3L45.7,23l-7.9,0.2c-0.8,0-1.6,0.6-1.9,1.4c-0.3,0.8,0,1.7,0.7,2.2l6.3,4.8l-2.3,7.6   c-0.2,0.8,0.1,1.7,0.7,2.2c0.4,0.3,0.8,0.4,1.2,0.4c0.4,0,0.8-0.1,1.1-0.4l6.5-4.5l6.5,4.5c0.3,0.2,0.7,0.4,1.1,0.4   c0.4,0,0.8-0.1,1.2-0.4c0.7-0.5,1-1.4,0.7-2.2l-2.3-7.6l6.3-4.8c0.7-0.5,1-1.4,0.7-2.2c-0.3-0.8-1-1.4-1.9-1.4L54.7,23l-2.6-7.5   C51.8,14.8,51.1,14.3,50.2,14.3L50.2,14.3z"/></g><text x="0" y="115" fill="#000000" font-size="5px" font-weight="bold" font-family="'Helvetica Neue', Helvetica, Arial-Unicode, Arial, Sans-serif">Created by Milky - Digital innovation</text><text x="0" y="120" fill="#000000" font-size="5px" font-weight="bold" font-family="'Helvetica Neue', Helvetica, Arial-Unicode, Arial, Sans-serif">from the Noun Project</text></svg>