<?xml version="1.0" encoding="utf-8"?>
<!-- Generator: Adobe Illustrator 24.3.0, SVG Export Plug-In . SVG Version: 6.00 Build 0)  -->
<svg version="1.1" id="Layer_1" xmlns="http://www.w3.org/2000/svg" xmlns:xlink="http://www.w3.org/1999/xlink" x="0px" y="0px"
	 viewBox="0 0 10 10" style="enable-background:new 0 0 10 10;" xml:space="preserve">
<style type="text/css">
	.st0{fill:#FFFFFF;}
</style>
<g id="Layer_2_1_">
</g>
<g id="Layer_1_1_">
	<path class="st0" d="M1.9,0.4L0.1,4.1c-0.2,0.4,0,0.8,0.3,1c0.4,0.2,0.8,0,1-0.3l1-2.1c0.1,0.2,0.2,0.4,0.3,0.6
		C2.8,3.5,2.9,3.7,3,3.9c0.5,0.9,1,1.7,1.7,2.4s1.3,1.4,2.1,2C7.5,9,8.3,9.5,9.2,9.9l0,0c0.3,0.1,0.6,0,0.7-0.2
		c0.2-0.3,0.1-0.6-0.2-0.8C8.9,8.5,8.2,8,7.5,7.4C6.9,6.8,6.3,6.2,5.8,5.5S4.8,4,4.4,3.2C4.3,3,4.2,2.8,4.1,2.6C4,2.5,4,2.4,3.9,2.2
		l2,1c0.4,0.2,0.8,0,1-0.3c0.2-0.4,0-0.8-0.3-1L2.9,0.1C2.5-0.1,2.1,0,1.9,0.4z"/>
</g>
</svg>
