<?xml version="1.0" encoding="utf-8"?>
<!-- Generator: Adobe Illustrator 24.3.0, SVG Export Plug-In . SVG Version: 6.00 Build 0)  -->
<svg version="1.1" id="Layer_1" xmlns="http://www.w3.org/2000/svg" xmlns:xlink="http://www.w3.org/1999/xlink" x="0px" y="0px"
	 viewBox="0 0 10 10" style="enable-background:new 0 0 10 10;" xml:space="preserve">
<style type="text/css">
	.st0{fill:#FFFFFF;}
</style>
<path class="st0" d="M9.9,3.7C9.8,3.3,9.4,3,8.9,3l-2.2,0L6,0.8C5.9,0.3,5.5,0,5,0C4.5,0,4.1,0.3,4,0.8L3.3,2.9L1.1,3
	c-0.5,0-0.9,0.3-1,0.8c-0.1,0.5,0,1,0.4,1.3l1.7,1.4L1.5,8.5c-0.1,0.5,0,1,0.4,1.2c0.4,0.3,0.9,0.3,1.3,0L5,8.5l1.8,1.3
	C7,9.9,7.2,10,7.4,10C7.6,10,7.9,9.9,8,9.8C8.4,9.5,8.6,9,8.4,8.5L7.8,6.4L9.6,5C9.9,4.7,10.1,4.2,9.9,3.7z M9,4.3L6.8,6l0.8,2.8
	c0,0.1,0,0.2-0.1,0.3c-0.1,0.1-0.2,0.1-0.3,0L5,7.4L2.7,9.1c-0.1,0.1-0.2,0.1-0.3,0C2.4,9,2.3,8.9,2.4,8.8L3.2,6L1,4.3
	C0.9,4.2,0.8,4.1,0.9,4c0-0.1,0.1-0.2,0.2-0.2l2.8-0.1l0.9-2.7C4.8,1,4.9,0.9,5,0.9S5.2,1,5.2,1.1l0.9,2.7l2.8,0.1
	C9,3.8,9.1,3.9,9.1,4C9.2,4.1,9.1,4.2,9,4.3z"/>
</svg>
