<?xml version="1.0" encoding="utf-8"?>
<!-- Generator: Adobe Illustrator 24.3.0, SVG Export Plug-In . SVG Version: 6.00 Build 0)  -->
<svg version="1.1" id="Layer_1" xmlns="http://www.w3.org/2000/svg" xmlns:xlink="http://www.w3.org/1999/xlink" x="0px" y="0px"
	 viewBox="0 0 10 10" style="enable-background:new 0 0 10 10;" xml:space="preserve">
<style type="text/css">
	.st0{fill:#FFFFFF;stroke:#FFFFFF;stroke-width:0.25;stroke-miterlimit:10;}
</style>
<g>
	<path class="st0" d="M6.4,9.6H3.8c-0.1,0-0.1-0.1-0.1-0.1V4.8c0-0.1,0-0.1,0.1-0.1h2.6c0.1,0,0.1,0.1,0.1,0.1v4.6
		C6.5,9.5,6.4,9.6,6.4,9.6z M3.9,9.3h2.4V5H3.9V9.3z"/>
	<path class="st0" d="M9.5,9.6H6.9c-0.1,0-0.1-0.1-0.1-0.1V7.6c0-0.1,0-0.1,0.1-0.1h2.6c0.1,0,0.1,0.1,0.1,0.1v1.8
		C9.6,9.5,9.6,9.6,9.5,9.6z M7,9.3h2.4V7.7H7V9.3z"/>
	<path class="st0" d="M3.1,9.6H0.6c-0.1,0-0.1-0.1-0.1-0.1V6.2c0-0.1,0-0.1,0.1-0.1h2.6c0.1,0,0.1,0.1,0.1,0.1v3.2
		C3.3,9.5,3.2,9.6,3.1,9.6z M0.7,9.3H3v-3H0.7V9.3z"/>
	<path class="st0" d="M5.1,0.7l0.3,1.1l1,0L5.6,2.6l0.3,1.2L5.1,3L4.2,3.7l0.3-1.2L3.7,1.8l1,0L5.1,0.7 M5.1,0.4
		C5,0.4,4.9,0.5,4.9,0.6l-0.3,1l-0.9,0c-0.1,0-0.2,0.1-0.2,0.2c0,0.1,0,0.2,0.1,0.3l0.7,0.6L4,3.6c0,0.1,0,0.2,0.1,0.3
		C4.1,4,4.2,4,4.2,4s0.1,0,0.1-0.1l0.7-0.6l0.7,0.6C5.8,4,5.9,4,5.9,4S6,4,6,3.9c0.1-0.1,0.1-0.2,0.1-0.3l-0.3-1L6.6,2
		C6.6,2,6.7,1.9,6.6,1.7c0-0.1-0.1-0.2-0.2-0.2l-0.9,0l-0.3-1C5.2,0.5,5.2,0.4,5.1,0.4L5.1,0.4z"/>
</g>
</svg>
