<?xml version="1.0" encoding="utf-8"?>
<!-- Generator: Adobe Illustrator 24.3.0, SVG Export Plug-In . SVG Version: 6.00 Build 0)  -->
<svg version="1.1"
	 id="Layer_1" xmlns:cc="http://creativecommons.org/ns#" xmlns:dc="http://purl.org/dc/elements/1.1/" xmlns:rdf="http://www.w3.org/1999/02/22-rdf-syntax-ns#" xmlns:svg="http://www.w3.org/2000/svg"
	 xmlns="http://www.w3.org/2000/svg" xmlns:xlink="http://www.w3.org/1999/xlink" x="0px" y="0px" viewBox="0 0 8.5 10.6"
	 style="enable-background:new 0 0 8.5 10.6;" xml:space="preserve">
<style type="text/css">
	.st0{fill-rule:evenodd;clip-rule:evenodd;}
</style>
<path class="st0" d="M5.3,0.5c-0.3,0-0.5,0-0.7,0.1c-0.2,0-0.5,0.1-0.7,0.2S3.4,1,3.2,1.2S2.8,1.4,2.7,1.6C2.5,1.8,2.4,2,2.2,2.2
	C2.1,2.4,2,2.6,1.9,2.8S1.7,3.2,1.7,3.5c0,0.2-0.1,0.5-0.1,0.7s0,0.5,0.1,0.7c0,0.2,0.1,0.5,0.2,0.7C2,5.9,2.1,6.1,2.2,6.3
	s0.3,0.4,0.5,0.5C2.8,7,3,7.2,3.2,7.3s0.4,0.2,0.6,0.3c0.2,0.1,0.5,0.2,0.7,0.2c0.2,0,0.5,0.1,0.7,0.1c0,0,0,0,0,0
	c0.1,0,0.1,0,0.2,0c0.1,0,0.1,0,0.2,0c0.1,0,0.1,0,0.2,0c0.1,0,0.1,0,0.2,0c0.1,0,0.1,0,0.2,0c0.1,0,0.1,0,0.2,0
	c0.1,0,0.1,0,0.2-0.1c0.1,0,0.1,0,0.2-0.1c0.1-0.1,0.2-0.2,0.1-0.3c0-0.1-0.1-0.1-0.1-0.1c0,0,0,0,0,0c0,0,0,0,0,0
	C6.6,7.1,6.5,7.1,6.4,7C6.3,7,6.2,6.9,6.1,6.9C6.1,6.8,6,6.7,5.9,6.7C5.8,6.6,5.7,6.5,5.7,6.4C5.6,6.4,5.5,6.3,5.5,6.2
	C5.4,6.1,5.3,6,5.3,5.9C5.2,5.9,5.2,5.8,5.1,5.7C5.1,5.6,5,5.5,5,5.4v0c0-0.1-0.1-0.2-0.1-0.3c0-0.1-0.1-0.2-0.1-0.3v0
	c0-0.1,0-0.2,0-0.3c0-0.1,0-0.1,0-0.2c0-0.1,0-0.2,0-0.3c0-0.1,0-0.2,0-0.3c0,0,0,0,0,0c0-0.1,0-0.2,0.1-0.3h0C4.9,3.2,5,3.1,5,3
	c0-0.1,0.1-0.2,0.1-0.3c0.1-0.1,0.1-0.2,0.2-0.3c0,0,0,0,0,0c0.1-0.1,0.1-0.2,0.2-0.3C5.6,2.1,5.7,2,5.7,2C5.8,1.9,5.9,1.8,6,1.7
	C6,1.7,6.1,1.6,6.2,1.6c0.1-0.1,0.2-0.1,0.3-0.2l0,0c0.1,0,0.1-0.1,0.2-0.1C6.8,1.2,6.9,1.1,6.9,1c0-0.1-0.1-0.1-0.1-0.1
	c-0.1,0-0.1,0-0.2-0.1c-0.1,0-0.1,0-0.2-0.1c-0.1,0-0.1,0-0.2,0c-0.1,0-0.1,0-0.2,0s-0.1,0-0.2,0s-0.1,0-0.2,0c-0.1,0-0.1,0-0.2,0
	C5.4,0.5,5.4,0.5,5.3,0.5z M5.3,1.1c0.1,0,0.1,0,0.2,0c0.1,0,0.1,0,0.2,0c0.1,0,0.1,0,0.2,0c0.1,0,0.1,0,0.2,0c0,0,0,0,0,0
	C5.8,1.2,5.7,1.3,5.6,1.3C5.5,1.4,5.4,1.5,5.4,1.6C5.3,1.7,5.2,1.8,5.1,1.8c0,0,0,0,0,0C5,1.9,5,2,4.9,2.1C4.8,2.2,4.7,2.3,4.7,2.5
	C4.6,2.6,4.6,2.7,4.5,2.8c0,0.1-0.1,0.2-0.1,0.3c0,0.1-0.1,0.2-0.1,0.4c0,0.1,0,0.2-0.1,0.4c0,0.1,0,0.2,0,0.4c0,0.1,0,0.2,0,0.3
	c0,0.1,0,0.2,0,0.4c0,0.1,0,0.2,0.1,0.4c0,0.1,0.1,0.2,0.1,0.3c0,0,0,0,0,0c0,0.1,0.1,0.2,0.2,0.3C4.7,6,4.8,6.1,4.8,6.2
	C4.9,6.3,5,6.4,5,6.5c0.1,0.1,0.2,0.2,0.2,0.3C5.4,6.9,5.5,7,5.6,7.1c0.1,0.1,0.2,0.2,0.3,0.2v0c0,0,0.1,0,0.1,0.1c0,0,0,0,0,0
	c-0.1,0-0.1,0-0.2,0c-0.1,0-0.1,0-0.2,0c-0.1,0-0.1,0-0.2,0c-0.1,0-0.1,0-0.2,0c-0.2,0-0.4,0-0.6-0.1c-0.2,0-0.4-0.1-0.6-0.2
	C3.9,7.1,3.7,7,3.5,6.9S3.2,6.6,3,6.5S2.8,6.2,2.7,6S2.4,5.7,2.4,5.5C2.3,5.3,2.2,5.1,2.2,4.9c0-0.2-0.1-0.4-0.1-0.6s0-0.4,0.1-0.6
	S2.3,3.2,2.4,3c0.1-0.2,0.2-0.4,0.3-0.5S2.9,2.1,3,2c0.1-0.1,0.3-0.3,0.5-0.4c0.2-0.1,0.3-0.2,0.5-0.3c0.2-0.1,0.4-0.1,0.6-0.2
	C4.9,1.1,5.1,1.1,5.3,1.1z"/>
</svg>
